<?xml version="1.0" encoding="UTF-8" standalone="no"?>
<!DOCTYPE svg PUBLIC "-//W3C//DTD SVG 1.1//EN" "http://www.w3.org/Graphics/SVG/1.1/DTD/svg11.dtd">
<svg width="100%" height="100%" viewBox="0 0 1123 1123" version="1.1" xmlns="http://www.w3.org/2000/svg" xmlns:xlink="http://www.w3.org/1999/xlink" xml:space="preserve" xmlns:serif="http://www.serif.com/" style="fill-rule:evenodd;clip-rule:evenodd;stroke-linecap:round;stroke-miterlimit:1.5;">
    <g transform="matrix(1,0,0,1,-2363.82,0)">
        <g id="Mesh-System" serif:id="Mesh System" transform="matrix(1.05581,0,0,1.05143,2363,4.05596)">
            <rect x="0.772" y="-3.858" width="1062.73" height="1067.16" style="fill:none;"/>
            <g id="Space-Borders" serif:id="Space Borders" transform="matrix(0.947139,0,0,0.947368,56.2184,-0.20303)">
                <g id="Outer-Areas-Triangulation" serif:id="Outer Areas Triangulation">
                    <g>
                        <g transform="matrix(1,0,0,1.00393,-2973.87,-3.85757)">
                            <path d="M3205.56,317.593L3300.84,581.828" style="fill:none;stroke:rgb(128,130,133);stroke-width:2.08px;stroke-dasharray:0,20.83,0,0;"/>
                        </g>
                        <g transform="matrix(1,0,0,1.00393,-2973.87,-3.85757)">
                            <path d="M3405.68,475.277L3300.84,581.828" style="fill:none;stroke:rgb(128,130,133);stroke-width:2.08px;stroke-dasharray:0,20.83,0,0;"/>
                        </g>
                        <g transform="matrix(1,0,0,1.00393,-2973.87,-3.85757)">
                            <path d="M3300.84,581.828L3207.54,749.442" style="fill:none;stroke:rgb(128,130,133);stroke-width:2.08px;stroke-dasharray:0,20.83,0,0;"/>
                        </g>
                        <g transform="matrix(1,0,0,1.00393,-2973.87,-3.85757)">
                            <path d="M3300.84,581.828L3386.65,746.624" style="fill:none;stroke:rgb(128,130,133);stroke-width:2.08px;stroke-dasharray:0,20.83,0,0;"/>
                        </g>
                    </g>
                    <g>
                        <g transform="matrix(1,0,0,1.00393,-2973.87,-3.85757)">
                            <path d="M3499.88,778.074L3809.48,863.785" style="fill:none;stroke:rgb(128,130,133);stroke-width:2.08px;stroke-dasharray:0,20.83,0,0;"/>
                        </g>
                        <g transform="matrix(1,0,0,1.00393,-2973.87,-3.85757)">
                            <path d="M3499.88,778.074L3594.38,727.219" style="fill:none;stroke:rgb(128,130,133);stroke-width:2.08px;stroke-dasharray:0,20.83,0,0;"/>
                        </g>
                        <g transform="matrix(1,0,0,1.00393,-2973.87,-3.85757)">
                            <path d="M3499.88,778.074L3386.65,746.624" style="fill:none;stroke:rgb(128,130,133);stroke-width:2.08px;stroke-dasharray:0,20.83,0,0;"/>
                        </g>
                        <g transform="matrix(1,0,0,1.00393,-2973.87,-3.85757)">
                            <path d="M3499.88,778.074L3207.54,749.442" style="fill:none;stroke:rgb(128,130,133);stroke-width:2.08px;stroke-dasharray:0,20.83,0,0;"/>
                        </g>
                    </g>
                    <g>
                        <g transform="matrix(1,0,0,1.00393,-2973.87,-3.85757)">
                            <path d="M3405.68,475.277L3589.32,343.019" style="fill:none;stroke:rgb(128,130,133);stroke-width:2.08px;stroke-dasharray:0,20.83,0,0;"/>
                        </g>
                        <g transform="matrix(1,0,0,1.00393,-2973.87,-3.85757)">
                            <path d="M3589.32,343.019L3205.56,317.593" style="fill:none;stroke:rgb(128,130,133);stroke-width:2.08px;stroke-dasharray:0,20.83,0,0;"/>
                        </g>
                        <g transform="matrix(1,0,0,1.00393,-2973.87,-3.85757)">
                            <path d="M3589.32,343.019L3829.08,364.187" style="fill:none;stroke:rgb(128,130,133);stroke-width:2.08px;stroke-dasharray:0,20.83,0,0;"/>
                        </g>
                        <g transform="matrix(1,0,0,1.00393,-2973.87,-3.85757)">
                            <path d="M3589.32,343.019L3903.33,176.406" style="fill:none;stroke:rgb(128,130,133);stroke-width:2.08px;stroke-dasharray:0,20.83,0,0;"/>
                        </g>
                    </g>
                    <g>
                        <g transform="matrix(1,0,0,1.00393,-2973.87,-3.85757)">
                            <path d="M3829.08,364.187L3783.39,537.064" style="fill:none;stroke:rgb(128,130,133);stroke-width:2.08px;stroke-dasharray:0,20.83,0,0;"/>
                        </g>
                        <g transform="matrix(1,0,0,1.00393,-2973.87,-3.85757)">
                            <path d="M3783.39,537.064L3903.33,176.406" style="fill:none;stroke:rgb(128,130,133);stroke-width:2.08px;stroke-dasharray:0,20.83,0,0;"/>
                        </g>
                        <g transform="matrix(1,0,0,1.00393,-2973.87,-3.85757)">
                            <path d="M3783.39,537.064L3809.48,863.785" style="fill:none;stroke:rgb(128,130,133);stroke-width:2.08px;stroke-dasharray:0,20.83,0,0;"/>
                        </g>
                        <g transform="matrix(1,0,0,1.00393,-2973.87,-3.85757)">
                            <path d="M3783.39,537.064L3594.38,727.219" style="fill:none;stroke:rgb(128,130,133);stroke-width:2.08px;stroke-dasharray:0,20.83,0,0;"/>
                        </g>
                    </g>
                </g>
                <g id="Inner-Area-Triangulation" serif:id="Inner Area Triangulation">
                    <g transform="matrix(1,0,0,1.00393,-2973.87,-3.85757)">
                        <path d="M3386.65,746.624L3494.21,620.814" style="fill:none;stroke:rgb(127,129,132);stroke-width:2.08px;stroke-dasharray:0,4.17,0,20.83;"/>
                    </g>
                    <g transform="matrix(1,0,0,1.00393,-2973.87,-3.85757)">
                        <path d="M3494.21,620.814L3594.38,727.219" style="fill:none;stroke:rgb(127,129,132);stroke-width:2.08px;stroke-dasharray:0,4.17,0,20.83;"/>
                    </g>
                    <g transform="matrix(1,0,0,1.00393,-2973.87,-3.85757)">
                        <path d="M3494.21,620.814L3829.08,364.187" style="fill:none;stroke:rgb(127,129,132);stroke-width:2.08px;stroke-dasharray:0,4.17,0,20.83;"/>
                    </g>
                    <g transform="matrix(1,0,0,1.00393,-2973.87,-3.85757)">
                        <path d="M3494.21,620.814L3405.68,475.277" style="fill:none;stroke:rgb(127,129,132);stroke-width:2.08px;stroke-dasharray:0,4.17,0,20.83;"/>
                    </g>
                </g>
                <g id="Quads-between-Keys" serif:id="Quads between Keys">
                    <g transform="matrix(1,0,0,1.00393,-2973.87,-3.85757)">
                        <path d="M3207.54,749.442L3809.48,863.785L3903.33,176.406L3205.56,317.593L3207.54,749.442Z" style="fill:none;stroke:rgb(35,31,32);stroke-width:2.08px;stroke-dasharray:0,8.33,0,0;"/>
                    </g>
                    <g transform="matrix(1,0,0,1.00393,-2973.87,-3.85757)">
                        <path d="M3386.65,746.624L3594.38,727.219L3829.08,364.187L3405.68,475.277L3386.65,746.624Z" style="fill:none;stroke:rgb(35,31,32);stroke-width:2.08px;stroke-dasharray:0,8.33,0,0;"/>
                    </g>
                    <g transform="matrix(1,0,0,1.00393,-2973.87,-3.85757)">
                        <path d="M3829.08,364.187L3903.33,176.406" style="fill:none;stroke:rgb(35,31,32);stroke-width:2.08px;stroke-dasharray:0,8.33,0,0;"/>
                    </g>
                    <g transform="matrix(1,0,0,1.00393,-2973.87,-3.85757)">
                        <path d="M3594.38,727.219L3809.48,863.785" style="fill:none;stroke:rgb(35,31,32);stroke-width:2.08px;stroke-dasharray:0,8.33,0,0;"/>
                    </g>
                    <g transform="matrix(1,0,0,1.00393,-2973.87,-3.85757)">
                        <path d="M3386.65,746.624L3207.54,749.442" style="fill:none;stroke:rgb(35,31,32);stroke-width:2.08px;stroke-dasharray:0,8.33,0,0;"/>
                    </g>
                    <g transform="matrix(1,0,0,1.00393,-2973.87,-3.85757)">
                        <path d="M3405.68,475.277L3205.56,317.593" style="fill:none;stroke:rgb(35,31,32);stroke-width:2.08px;stroke-dasharray:0,8.33,0,0;"/>
                    </g>
                </g>
            </g>
            <g id="axis-marker" serif:id="axis marker" transform="matrix(0.947139,0,0,0.951087,56.9493,-3.54605)">
                <g transform="matrix(0.998464,0,0,1,-0.873398,0)">
                    <path d="M60.021,58.937L60.021,1004.16L1006.36,1004.16" style="fill:none;stroke:rgb(35,31,32);stroke-width:2.08px;stroke-linecap:butt;"/>
                </g>
                <g>
                    <g transform="matrix(1.20866,0,0,1,-12.3227,59.0551)">
                        <path d="M59.055,59.055L44.397,59.055" style="fill:none;stroke:rgb(35,31,32);stroke-width:1.88px;stroke-linecap:butt;"/>
                    </g>
                    <g transform="matrix(1.20866,0,0,1,-12.3227,265.748)">
                        <path d="M59.055,59.055L44.397,59.055" style="fill:none;stroke:rgb(35,31,32);stroke-width:1.88px;stroke-linecap:butt;"/>
                    </g>
                    <g transform="matrix(1.20866,0,0,1,-12.3227,472.441)">
                        <path d="M59.055,59.055L44.397,59.055" style="fill:none;stroke:rgb(35,31,32);stroke-width:1.88px;stroke-linecap:butt;"/>
                    </g>
                    <g transform="matrix(1.20866,0,0,1,-12.3227,679.134)">
                        <path d="M59.055,59.055L44.397,59.055" style="fill:none;stroke:rgb(35,31,32);stroke-width:1.88px;stroke-linecap:butt;"/>
                    </g>
                    <g transform="matrix(1.20866,0,0,1,-12.3227,885.827)">
                        <path d="M59.055,59.055L44.397,59.055" style="fill:none;stroke:rgb(35,31,32);stroke-width:1.88px;stroke-linecap:butt;"/>
                    </g>
                </g>
                <g>
                    <g transform="matrix(1,0,0,0.805928,-206.693,194.879)">
                        <path d="M531.496,1004.16L531.496,1026.14" style="fill:none;stroke:rgb(35,31,32);stroke-width:2.29px;stroke-linecap:butt;"/>
                    </g>
                    <g transform="matrix(1,0,0,0.805928,0,194.879)">
                        <path d="M531.496,1004.16L531.496,1026.14" style="fill:none;stroke:rgb(35,31,32);stroke-width:2.29px;stroke-linecap:butt;"/>
                    </g>
                    <g transform="matrix(1,0,0,0.805928,-413.386,194.879)">
                        <path d="M531.496,1004.16L531.496,1026.14" style="fill:none;stroke:rgb(35,31,32);stroke-width:2.29px;stroke-linecap:butt;"/>
                    </g>
                    <g transform="matrix(1,0,0,0.805928,206.693,194.879)">
                        <path d="M531.496,1004.16L531.496,1026.14" style="fill:none;stroke:rgb(35,31,32);stroke-width:2.29px;stroke-linecap:butt;"/>
                    </g>
                    <g transform="matrix(1,0,0,0.805928,413.386,194.879)">
                        <path d="M531.496,1004.16L531.496,1026.14" style="fill:none;stroke:rgb(35,31,32);stroke-width:2.29px;stroke-linecap:butt;"/>
                    </g>
                </g>
                <g id="y-axis" serif:id="y axis" transform="matrix(1,0,0,0.99609,-0.771671,3.51494)">
                    <g id="y-axis1" serif:id="y-axis" transform="matrix(1,0,0,1.02711,63.4647,-0.172611)">
                        <path d="M468.803,60.227L468.803,978.011" style="fill:none;stroke:black;stroke-width:2.06px;stroke-linecap:butt;stroke-linejoin:round;"/>
                    </g>
                    <g transform="matrix(1.20074,0,0,4.82183,-105.871,-228.394)">
                        <path d="M536.371,63.849L526.535,63.849L531.453,58.93L536.371,63.849Z"/>
                    </g>
                </g>
                <g id="x-axis" serif:id="x axis" transform="matrix(1,0,0,0.99609,-0.771671,3.51494)">
                    <g id="x-axis1" serif:id="x-axis" transform="matrix(1.04904,0,0,1.00393,-6.43757,15.4944)">
                        <path d="M63.167,512.547L958.247,512.547" style="fill:none;stroke:rgb(35,31,32);stroke-width:2.03px;stroke-linecap:butt;stroke-linejoin:round;"/>
                    </g>
                    <g transform="matrix(7.35243e-17,1.20546,-4.80297,2.95252e-16,1287.75,-110.59)">
                        <path d="M536.371,63.849L526.535,63.849L531.453,58.93L536.371,63.849Z" style="fill:rgb(35,31,32);"/>
                    </g>
                </g>
                <g id="y-axis-labels" serif:id="y axis labels" transform="matrix(1,0,0,0.99609,-0.771671,3.51494)">
                    <g transform="matrix(1,0,0,1.00393,4.02236,-21.6446)">
                        <path d="M20.88,120.622L21.547,115.889L29.48,115.889L29.48,112.822L18.747,112.822L17.547,122.289L18.547,125.089C21.08,121.755 27.747,122.289 27.68,128.555C27.68,131.555 25.347,133.622 22.68,133.622C21.08,133.622 19.613,132.889 18.813,131.489L16.48,133.555C17.813,135.622 20.213,136.689 22.68,136.689C26.68,136.689 30.88,133.622 30.88,128.555C30.88,121.955 26.08,119.089 20.88,120.622Z" style="fill-rule:nonzero;"/>
                    </g>
                    <g transform="matrix(1,0,0,1.00393,4.02236,393.416)">
                        <path d="M30.147,114.889L25.813,120.889C28.68,121.555 31.147,124.622 31.147,128.022C31.147,136.689 21.08,139.422 16.78,133.089L19.047,131.022C20.013,132.622 21.613,133.489 22.947,133.489C25.947,133.489 28.013,131.489 28.013,128.222C28.013,124.555 24.213,122.555 21.08,123.755L21.08,121.889L25.613,115.889L18.013,115.889L18.613,112.822L30.147,112.822L30.147,114.889Z" style="fill-rule:nonzero;"/>
                    </g>
                    <g transform="matrix(1,0,0,1.00393,3.15569,187.472)">
                        <path d="M34.347,127.889L31.413,127.889L31.413,112.822L29.08,112.822L17.613,128.622L17.613,130.955L28.28,130.955L28.28,136.155L31.413,136.155L31.413,130.955L34.347,130.955L34.347,127.889ZM28.213,127.889L21.813,127.889L28.213,118.955L28.213,127.889Z" style="fill-rule:nonzero;"/>
                    </g>
                    <g transform="matrix(1,0,0,1.00393,4.02236,602.529)">
                        <path d="M31.113,133.022L22.013,133.022L28.747,123.689C30.08,121.822 30.68,120.089 30.68,118.355C30.68,117.089 30.213,115.955 29.547,114.989C28.313,113.255 26.28,112.355 23.78,112.355C20.713,112.355 18.347,113.855 17.313,116.455L19.68,118.355C20.747,115.689 22.813,115.422 23.747,115.422C25.313,115.422 26.413,116.022 26.98,117.055C27.547,118.089 27.68,119.822 25.813,122.355L16.947,134.455L16.947,136.089L31.113,136.089L31.113,133.022Z" style="fill-rule:nonzero;"/>
                    </g>
                    <g transform="matrix(1,0,0,1.00393,7.60569,810.672)">
                        <path d="M21.947,112.789L25.113,112.789L25.113,136.155L21.947,136.155L21.947,117.022L17.947,120.455L17.947,116.289L21.947,112.789Z" style="fill-rule:nonzero;"/>
                    </g>
                </g>
                <g id="x-axis-labels" serif:id="x axis labels" transform="matrix(1,0,0,0.99609,-0.771671,3.51494)">
                    <g transform="matrix(1,0,0,1.00393,95.4388,921.227)">
                        <path d="M21.947,112.789L25.113,112.789L25.113,136.155L21.947,136.155L21.947,117.022L17.947,120.455L17.947,116.289L21.947,112.789Z" style="fill-rule:nonzero;"/>
                    </g>
                    <g transform="matrix(1,0,0,1.00393,301.629,921.227)">
                        <path d="M31.113,133.022L22.013,133.022L28.747,123.689C30.08,121.822 30.68,120.089 30.68,118.355C30.68,117.089 30.213,115.955 29.547,114.989C28.313,113.255 26.28,112.355 23.78,112.355C20.713,112.355 18.347,113.855 17.313,116.455L19.68,118.355C20.747,115.689 22.813,115.422 23.747,115.422C25.313,115.422 26.413,116.022 26.98,117.055C27.547,118.089 27.68,119.822 25.813,122.355L16.947,134.455L16.947,136.089L31.113,136.089L31.113,133.022Z" style="fill-rule:nonzero;"/>
                    </g>
                    <g transform="matrix(1,0,0,1.00393,508.373,921.194)">
                        <path d="M30.147,114.889L25.813,120.889C28.68,121.555 31.147,124.622 31.147,128.022C31.147,136.689 21.08,139.422 16.78,133.089L19.047,131.022C20.013,132.622 21.613,133.489 22.947,133.489C25.947,133.489 28.013,131.489 28.013,128.222C28.013,124.555 24.213,122.555 21.08,123.755L21.08,121.889L25.613,115.889L18.013,115.889L18.613,112.822L30.147,112.822L30.147,114.889Z" style="fill-rule:nonzero;"/>
                    </g>
                    <g transform="matrix(1,0,0,1.00393,709.362,921.194)">
                        <path d="M34.347,127.889L31.413,127.889L31.413,112.822L29.08,112.822L17.613,128.622L17.613,130.955L28.28,130.955L28.28,136.155L31.413,136.155L31.413,130.955L34.347,130.955L34.347,127.889ZM28.213,127.889L21.813,127.889L28.213,118.955L28.213,127.889Z" style="fill-rule:nonzero;"/>
                    </g>
                    <g transform="matrix(1,0,0,1.00393,922.14,920.761)">
                        <path d="M20.88,120.622L21.547,115.889L29.48,115.889L29.48,112.822L18.747,112.822L17.547,122.289L18.547,125.089C21.08,121.755 27.747,122.289 27.68,128.555C27.68,131.555 25.347,133.622 22.68,133.622C21.08,133.622 19.613,132.889 18.813,131.489L16.48,133.555C17.813,135.622 20.213,136.689 22.68,136.689C26.68,136.689 30.88,133.622 30.88,128.555C30.88,121.955 26.08,119.089 20.88,120.622Z" style="fill-rule:nonzero;"/>
                    </g>
                </g>
                <g transform="matrix(1,0,0,1,456.812,967.559)">
                    <path d="M34.613,119.489L29.88,119.489L25.213,130.422L20.613,119.489L15.813,119.489L22.813,136.155L27.547,136.155L34.613,119.489Z" style="fill-rule:nonzero;"/>
                    <path d="M37.68,122.089L40.613,124.689C41.48,123.489 42.613,123.155 44.213,123.222C46.213,123.222 46.947,124.155 47.08,125.222L47.08,125.755C43.347,125.755 36.813,125.955 36.813,131.155C36.813,134.355 39.547,136.489 42.88,136.489C44.547,136.489 46.013,135.889 47.08,135.155L47.08,136.155L51.347,136.155L51.347,125.955C51.347,121.422 48.013,119.022 44.347,119.022C42.88,119.022 39.547,119.022 37.68,122.089ZM47.08,128.955L47.08,130.489C47.08,131.822 44.547,132.822 43.147,132.822C41.547,132.822 40.947,132.222 40.947,131.155C40.947,129.289 44.213,129.022 47.08,128.955Z" style="fill-rule:nonzero;"/>
                    <path d="M55.28,129.422L55.28,112.822L59.747,112.822L59.747,130.622C59.747,132.489 60.413,135.355 60.68,136.155L56.28,136.155C56.08,135.689 55.28,133.489 55.28,129.422Z" style="fill-rule:nonzero;"/>
                    <path d="M79.08,133.022L75.747,130.755C74.48,132.022 73.613,132.422 72.08,132.422C70.28,132.422 68.747,131.222 68.213,129.489L79.547,129.489C79.813,125.622 78.08,119.022 71.747,119.022C67.613,119.022 63.747,122.755 63.747,127.889C63.747,132.822 67.68,136.622 72.08,136.622C74.947,136.622 77.68,135.289 79.08,133.022ZM75.013,125.689L68.147,125.689C68.88,124.022 70.28,122.822 71.747,122.822C73.213,122.822 74.48,124.022 75.013,125.689Z" style="fill-rule:nonzero;"/>
                    <path d="M92.547,136.155L96.947,136.155L96.947,126.422C96.947,121.355 94.347,119.022 90.413,119.022C89.213,119.022 87.747,119.622 87.08,120.555L87.08,119.489L82.747,119.489L82.747,136.155L87.147,136.155L87.147,126.289C87.08,124.689 88.347,123.422 89.947,123.422C91.48,123.422 92.547,124.622 92.547,126.422L92.547,136.155Z" style="fill-rule:nonzero;"/>
                    <path d="M115.08,133.422L112.08,130.222C111.08,131.755 110.08,132.289 108.48,132.289C106.48,132.289 104.547,130.555 104.547,127.822C104.547,125.089 106.48,123.355 108.48,123.355C110.413,123.355 111.347,124.155 112.213,125.689L115.347,122.555C113.813,120.355 111.213,119.022 108.413,119.022C104.28,119.022 100.147,122.755 100.147,127.822C100.147,132.955 104.013,136.622 108.413,136.622C111.013,136.622 113.48,135.555 115.08,133.422Z" style="fill-rule:nonzero;"/>
                    <path d="M132.547,133.022L129.213,130.755C127.947,132.022 127.08,132.422 125.547,132.422C123.747,132.422 122.213,131.222 121.68,129.489L133.013,129.489C133.28,125.622 131.547,119.022 125.213,119.022C121.08,119.022 117.213,122.755 117.213,127.889C117.213,132.822 121.147,136.622 125.547,136.622C128.413,136.622 131.147,135.289 132.547,133.022ZM128.48,125.689L121.613,125.689C122.347,124.022 123.747,122.822 125.213,122.822C126.68,122.822 127.947,124.022 128.48,125.689Z" style="fill-rule:nonzero;"/>
                </g>
                <g transform="matrix(6.12323e-17,1,-1,6.12323e-17,100.753,461.816)">
                    <path d="M17.813,122.089L20.747,124.689C21.613,123.489 22.747,123.155 24.347,123.222C26.347,123.222 27.08,124.155 27.213,125.222L27.213,125.755C23.48,125.755 16.947,125.955 16.947,131.155C16.947,134.355 19.68,136.489 23.013,136.489C24.68,136.489 26.147,135.889 27.213,135.155L27.213,136.155L31.48,136.155L31.48,125.955C31.48,121.422 28.147,119.022 24.48,119.022C23.013,119.022 19.68,119.022 17.813,122.089ZM27.213,128.955L27.213,130.489C27.213,131.822 24.68,132.822 23.28,132.822C21.68,132.822 21.08,132.222 21.08,131.155C21.08,129.289 24.347,129.022 27.213,128.955Z" style="fill-rule:nonzero;"/>
                    <path d="M39.747,120.555L39.747,119.489L35.413,119.489L35.413,136.155L39.813,136.155L39.813,125.755C39.813,123.222 42.413,122.889 43.813,123.622L46.213,120.089C42.88,117.955 40.48,119.622 39.747,120.555Z" style="fill-rule:nonzero;"/>
                    <path d="M54.68,119.022C49.213,119.022 46.413,123.422 46.413,127.755C46.413,132.022 49.213,136.622 54.68,136.622C60.213,136.622 62.947,132.022 62.947,127.755C62.947,123.422 60.213,119.022 54.68,119.022ZM54.68,132.289C52.08,132.289 50.813,129.955 50.813,127.822C50.813,125.622 52.147,123.355 54.68,123.355C57.213,123.355 58.547,125.622 58.547,127.822C58.547,129.955 57.28,132.289 54.68,132.289Z" style="fill-rule:nonzero;"/>
                    <path d="M76.013,134.822L76.013,136.155L80.413,136.155L80.413,119.489L76.013,119.489L76.013,129.289C76.013,131.222 74.88,132.089 72.947,132.089C71.347,132.089 70.213,131.155 70.213,129.355L70.213,119.489L65.813,119.489L65.813,129.355C65.813,134.422 68.947,136.555 72.68,136.555C73.747,136.555 75.347,135.955 76.013,134.822Z" style="fill-rule:nonzero;"/>
                    <path d="M86.88,130.889L83.813,133.222C84.747,135.422 87.147,136.622 89.947,136.622C93.013,136.622 96.613,134.755 96.547,131.355C96.48,128.422 95.08,126.889 91.213,125.555C89.28,124.889 88.68,124.422 88.68,123.955C88.68,123.089 89.613,122.689 90.347,122.689C91.68,122.689 92.613,123.222 93.213,124.622L96.147,122.089C95.413,120.289 93.08,119.022 90.413,119.022C87.48,119.022 84.48,120.955 84.48,123.822C84.48,126.289 86.613,128.022 89.613,129.222C91.48,129.955 92.413,130.422 92.413,131.489C92.413,132.555 91.28,132.889 89.947,132.889C88.48,132.889 87.613,132.022 86.88,130.889Z" style="fill-rule:nonzero;"/>
                    <path d="M99.413,122.089L102.347,124.689C103.213,123.489 104.347,123.155 105.947,123.222C107.947,123.222 108.68,124.155 108.813,125.222L108.813,125.755C105.08,125.755 98.547,125.955 98.547,131.155C98.547,134.355 101.28,136.489 104.613,136.489C106.28,136.489 107.747,135.889 108.813,135.155L108.813,136.155L113.08,136.155L113.08,125.955C113.08,121.422 109.747,119.022 106.08,119.022C104.613,119.022 101.28,119.022 99.413,122.089ZM108.813,128.955L108.813,130.489C108.813,131.822 106.28,132.822 104.88,132.822C103.28,132.822 102.68,132.222 102.68,131.155C102.68,129.289 105.947,129.022 108.813,128.955Z" style="fill-rule:nonzero;"/>
                    <path d="M117.013,129.422L117.013,112.822L121.48,112.822L121.48,130.622C121.48,132.489 122.147,135.355 122.413,136.155L118.013,136.155C117.813,135.689 117.013,133.489 117.013,129.422Z" style="fill-rule:nonzero;"/>
                </g>
            </g>
            <g id="Key-Labels" serif:id="Key Labels" transform="matrix(0.947139,0,0,0.947368,56.2184,-0.20303)">
                <g transform="matrix(1,0,0,1.00393,624.388,596.826)">
                    <path d="M22.147,112.822L26.347,112.822L26.347,136.155L21.68,136.155L21.68,119.489L17.947,122.622L17.947,116.422L22.147,112.822Z" style="fill-rule:nonzero;"/>
                </g>
                <g transform="matrix(1,0,0,1.00393,808.173,425.755)">
                    <path d="M23.48,128.155L18.747,136.155L23.88,136.155L30.147,126.089C32.013,122.689 32.147,121.755 32.147,120.289C32.147,115.422 27.88,112.355 24.28,112.355C20.747,112.355 16.48,115.222 16.48,120.289C16.48,124.622 19.613,127.955 23.48,128.155ZM24.28,124.089C22.28,124.089 21.08,122.755 21.08,120.355C21.08,118.222 22.28,116.822 24.28,116.822C26.213,116.822 27.48,118.222 27.48,120.355C27.48,122.822 26.213,124.089 24.28,124.089Z" style="fill-rule:nonzero;"/>
                </g>
                <g transform="matrix(1,0,0,1.00393,532.003,659.24)">
                    <path d="M22.147,112.822L26.347,112.822L26.347,136.155L21.68,136.155L21.68,119.489L17.947,122.622L17.947,116.422L22.147,112.822Z" style="fill-rule:nonzero;"/>
                    <path d="M47.213,131.489L39.28,131.489L44.747,124.555C46.147,122.689 46.813,120.755 46.813,118.955C46.813,117.622 46.213,116.222 45.48,115.289C44.28,113.422 41.813,112.355 39.28,112.355C35.88,112.355 33.213,113.889 32.28,116.955L35.813,119.689C36.48,117.222 38.213,116.955 39.213,116.955C41.88,116.955 42.547,119.422 40.613,122.355L32.013,133.489L32.013,136.155L47.213,136.155L47.213,131.489Z" style="fill-rule:nonzero;"/>
                </g>
                <g transform="matrix(1,0,0,1.00393,331.032,455.133)">
                    <path d="M22.147,112.822L26.347,112.822L26.347,136.155L21.68,136.155L21.68,119.489L17.947,122.622L17.947,116.422L22.147,112.822Z" style="fill-rule:nonzero;"/>
                    <path d="M37.213,112.822L41.413,112.822L41.413,136.155L36.747,136.155L36.747,119.489L33.013,122.622L33.013,116.422L37.213,112.822Z" style="fill-rule:nonzero;"/>
                </g>
                <g transform="matrix(1,0,0,1.00393,579.857,183.35)">
                    <path d="M22.147,112.822L26.347,112.822L26.347,136.155L21.68,136.155L21.68,119.489L17.947,122.622L17.947,116.422L22.147,112.822Z" style="fill-rule:nonzero;"/>
                    <path d="M40.413,112.355C34.947,112.355 31.347,116.822 31.347,124.422C31.347,134.089 35.813,136.622 40.413,136.622C45.013,136.622 49.48,134.089 49.48,124.422C49.48,116.822 45.88,112.355 40.413,112.355ZM40.413,132.089C36.413,132.022 35.947,128.355 35.947,124.489C35.947,119.889 37.347,116.889 40.413,116.889C43.48,116.889 44.88,119.889 44.88,124.489C44.88,128.355 44.413,132.022 40.413,132.089Z" style="fill-rule:nonzero;"/>
                </g>
                <g transform="matrix(1,0,0,1.00393,845.309,737.187)">
                    <path d="M22.547,119.822L22.88,117.422L30.413,117.422L30.413,112.822L19.013,112.822L17.813,122.555L19.547,126.022C20.613,123.022 27.347,122.489 27.28,128.289C27.28,130.622 25.413,132.222 23.413,132.222C21.88,132.222 21.147,131.689 20.28,130.289L16.613,133.022C17.947,135.489 20.747,136.689 23.413,136.689C27.347,136.689 31.88,133.422 31.88,128.289C31.88,122.155 27.347,119.022 22.547,119.822Z" style="fill-rule:nonzero;"/>
                </g>
                <g transform="matrix(1,0,0,1.00393,938.761,45.9351)">
                    <path d="M24.88,121.155L29.813,112.822L24.747,112.822L18.48,122.822C16.613,126.155 16.48,127.555 16.48,128.955C16.48,133.689 20.68,136.622 24.28,136.622C27.813,136.622 32.08,133.689 32.08,128.755C32.08,124.289 28.813,121.155 24.88,121.155ZM24.28,132.222C22.347,132.222 21.08,130.822 21.08,128.755C21.08,126.289 22.547,125.089 24.28,125.089C26.28,125.089 27.48,126.222 27.48,128.755C27.48,130.822 26.28,132.222 24.28,132.222Z" style="fill-rule:nonzero;"/>
                </g>
                <g transform="matrix(1,0,0,1.00393,221.019,159.457)">
                    <path d="M33.147,115.755L33.147,112.822L16.613,112.822L16.613,117.355L27.28,117.355L18.747,136.155L23.947,136.155L33.147,115.755Z" style="fill-rule:nonzero;"/>
                </g>
                <g transform="matrix(1,0,0,1.00393,864.471,236.989)">
                    <path d="M32.147,131.489L24.213,131.489L29.68,124.555C31.08,122.689 31.747,120.755 31.747,118.955C31.747,117.622 31.147,116.222 30.413,115.289C29.213,113.422 26.747,112.355 24.213,112.355C20.813,112.355 18.147,113.889 17.213,116.955L20.747,119.689C21.413,117.222 23.147,116.955 24.147,116.955C26.813,116.955 27.48,119.422 25.547,122.355L16.947,133.489L16.947,136.155L32.147,136.155L32.147,131.489Z" style="fill-rule:nonzero;"/>
                </g>
                <g transform="matrix(1,0,0,1.00393,407.669,320.387)">
                    <path d="M27.747,120.689L31.28,115.822L31.28,112.822L19.013,112.822L18.147,117.289L24.613,117.289L21.213,121.755L21.213,125.155C22.013,124.555 23.013,124.289 23.88,124.289C26.08,124.289 27.68,125.755 27.68,128.089C27.68,130.622 26.08,132.089 23.747,132.089C22.48,132.089 21.08,131.222 20.28,129.422L16.947,132.355C18.613,135.222 21.28,136.489 23.947,136.489C28.147,136.489 32.213,133.355 32.213,127.822C32.213,124.822 30.28,121.755 27.747,120.689Z" style="fill-rule:nonzero;"/>
                </g>
                <g transform="matrix(1,0,0,1.00393,413.269,602.242)">
                    <path d="M35.613,127.622L32.813,127.622L32.813,112.822L29.013,112.822L17.613,128.822L17.613,132.155L28.147,132.155L28.147,136.155L32.813,136.155L32.813,132.155L35.613,132.155L35.613,127.622ZM28.147,127.622L23.68,127.622L28.147,121.222L28.147,127.622Z" style="fill-rule:nonzero;"/>
                </g>
                <g transform="matrix(1,0,0,1.00393,182.465,620.72)">
                    <path d="M29.68,122.555C30.547,121.489 31.147,120.022 31.147,118.822C31.147,115.422 28.68,112.355 24.813,112.355C21.013,112.355 18.48,115.422 18.48,118.822C18.48,120.022 19.147,121.489 20.013,122.555C18.213,124.022 16.947,126.222 16.947,128.822C16.947,133.755 21.08,136.555 24.88,136.622C28.68,136.555 32.813,133.755 32.813,128.822C32.813,126.155 31.547,123.955 29.68,122.555ZM24.88,116.489C26.213,116.489 27.08,117.289 27.08,118.755C27.08,120.155 26.147,120.955 24.88,121.022C23.613,120.955 22.68,120.155 22.68,118.755C22.68,117.355 23.613,116.489 24.88,116.489ZM24.88,132.222C23.013,132.222 21.547,130.822 21.547,128.822C21.547,126.489 22.947,125.155 24.88,125.155C26.947,125.155 28.213,126.489 28.213,128.822C28.213,130.822 26.747,132.222 24.88,132.222Z" style="fill-rule:nonzero;"/>
                </g>
                <g transform="matrix(1,0,0,1.00393,527.333,494.413)">
                    <path d="M25.347,112.355C19.88,112.355 16.28,116.822 16.28,124.422C16.28,134.089 20.747,136.622 25.347,136.622C29.947,136.622 34.413,134.089 34.413,124.422C34.413,116.822 30.813,112.355 25.347,112.355ZM25.347,132.089C21.347,132.022 20.88,128.355 20.88,124.489C20.88,119.889 22.28,116.889 25.347,116.889C28.413,116.889 29.813,119.889 29.813,124.489C29.813,128.355 29.347,132.022 25.347,132.089Z" style="fill-rule:nonzero;"/>
                </g>
            </g>
            <g id="Keys" transform="matrix(0.947139,0,0,0.947368,56.2184,-0.20303)">
                <g id="cheerful" transform="matrix(0.893009,0,0,0.896514,239.815,6.25599)">
                    <circle cx="689.342" cy="396.956" r="9.92" style="fill:rgb(35,31,32);"/>
                </g>
                <g id="tense" transform="matrix(0.893009,0,0,0.896514,-183.555,116.886)">
                    <circle cx="689.342" cy="396.956" r="9.92" style="fill:rgb(35,31,32);"/>
                </g>
                <g id="calm" transform="matrix(0.893009,0,0,0.896514,5.53218,371.956)">
                    <circle cx="689.342" cy="396.956" r="9.92" style="fill:rgb(35,31,32);"/>
                </g>
                <g id="relaxed" transform="matrix(0.893009,0,0,0.896514,219.618,507.485)">
                    <circle cx="689.342" cy="396.956" r="9.92" style="fill:rgb(35,31,32);"/>
                </g>
                <g id="angry" transform="matrix(0.893009,0,0,0.896514,-384.706,-41.2357)">
                    <circle cx="689.342" cy="396.956" r="9.92" style="fill:rgb(35,31,32);"/>
                </g>
                <g id="excited" transform="matrix(0.893009,0,0,0.896514,314.068,-182.164)">
                    <circle cx="689.342" cy="396.956" r="9.92" style="fill:rgb(35,31,32);"/>
                </g>
                <g id="bored" transform="matrix(0.893009,0,0,0.896514,-202.222,390.054)">
                    <circle cx="689.342" cy="396.956" r="9.92" style="fill:rgb(35,31,32);"/>
                </g>
                <g id="Sad" transform="matrix(0.893009,0,0,0.896514,-383.132,391.997)">
                    <circle cx="689.342" cy="396.956" r="9.92" style="fill:rgb(35,31,32);"/>
                </g>
            </g>
            <g id="Neutral-Key" serif:id="Neutral Key" transform="matrix(0.947139,0,0,0.947368,45.1989,85.2153)">
                <g transform="matrix(1.48835,0,0,1.49419,-493.713,-63.0749)">
                    <circle cx="689.342" cy="396.956" r="9.92" style="fill:white;stroke:rgb(35,31,32);stroke-width:1.4px;"/>
                </g>
                <g transform="matrix(0.893009,0,0,0.896514,-83.3209,174.177)">
                    <circle cx="689.342" cy="396.956" r="9.92" style="stroke:rgb(35,31,32);stroke-width:2.33px;"/>
                </g>
            </g>
            <g id="Virtual-Keys" serif:id="Virtual Keys" transform="matrix(0.947139,0,0,0.947368,56.2184,-0.20303)">
                <g transform="matrix(0.893009,0,0,0.896514,-288.441,223.383)">
                    <circle cx="689.342" cy="396.956" r="9.92" style="fill:white;stroke:rgb(35,31,32);stroke-width:2.33px;"/>
                </g>
                <g transform="matrix(0.893009,0,0,0.896514,0.0342538,-16.1253)">
                    <circle cx="689.342" cy="396.956" r="9.92" style="fill:white;stroke:rgb(35,31,32);stroke-width:2.33px;"/>
                </g>
                <g transform="matrix(0.893009,0,0,0.896514,193.757,179.734)">
                    <circle cx="689.342" cy="396.956" r="9.92" style="fill:white;stroke:rgb(35,31,32);stroke-width:2.33px;"/>
                </g>
                <g transform="matrix(0.893009,0,0,0.896514,-89.5098,421.268)">
                    <circle cx="689.342" cy="396.956" r="9.92" style="fill:white;stroke:rgb(35,31,32);stroke-width:2.33px;"/>
                </g>
            </g>
        </g>
        <g id="Mesh-System1" serif:id="Mesh System" transform="matrix(1.05581,0,0,1.05143,2363,4.05596)">
            <rect x="0.772" y="-3.858" width="1062.73" height="1067.16" style="fill:none;"/>
            <g id="Space-Borders1" serif:id="Space Borders" transform="matrix(0.947139,0,0,0.947368,56.2184,-0.20303)">
                <g id="Outer-Areas-Triangulation1" serif:id="Outer Areas Triangulation">
                    <g>
                        <g transform="matrix(1,0,0,1.00393,-2973.87,-3.85757)">
                            <path d="M3205.56,317.593L3300.84,581.828" style="fill:none;stroke:rgb(128,130,133);stroke-width:2.08px;stroke-dasharray:0,20.83,0,0;"/>
                        </g>
                        <g transform="matrix(1,0,0,1.00393,-2973.87,-3.85757)">
                            <path d="M3405.68,475.277L3300.84,581.828" style="fill:none;stroke:rgb(128,130,133);stroke-width:2.08px;stroke-dasharray:0,20.83,0,0;"/>
                        </g>
                        <g transform="matrix(1,0,0,1.00393,-2973.87,-3.85757)">
                            <path d="M3300.84,581.828L3207.54,749.442" style="fill:none;stroke:rgb(128,130,133);stroke-width:2.08px;stroke-dasharray:0,20.83,0,0;"/>
                        </g>
                        <g transform="matrix(1,0,0,1.00393,-2973.87,-3.85757)">
                            <path d="M3300.84,581.828L3386.65,746.624" style="fill:none;stroke:rgb(128,130,133);stroke-width:2.08px;stroke-dasharray:0,20.83,0,0;"/>
                        </g>
                    </g>
                    <g>
                        <g transform="matrix(1,0,0,1.00393,-2973.87,-3.85757)">
                            <path d="M3499.88,778.074L3809.48,863.785" style="fill:none;stroke:rgb(128,130,133);stroke-width:2.08px;stroke-dasharray:0,20.83,0,0;"/>
                        </g>
                        <g transform="matrix(1,0,0,1.00393,-2973.87,-3.85757)">
                            <path d="M3499.88,778.074L3594.38,727.219" style="fill:none;stroke:rgb(128,130,133);stroke-width:2.08px;stroke-dasharray:0,20.83,0,0;"/>
                        </g>
                        <g transform="matrix(1,0,0,1.00393,-2973.87,-3.85757)">
                            <path d="M3499.88,778.074L3386.65,746.624" style="fill:none;stroke:rgb(128,130,133);stroke-width:2.08px;stroke-dasharray:0,20.83,0,0;"/>
                        </g>
                        <g transform="matrix(1,0,0,1.00393,-2973.87,-3.85757)">
                            <path d="M3499.88,778.074L3207.54,749.442" style="fill:none;stroke:rgb(128,130,133);stroke-width:2.08px;stroke-dasharray:0,20.83,0,0;"/>
                        </g>
                    </g>
                    <g>
                        <g transform="matrix(1,0,0,1.00393,-2973.87,-3.85757)">
                            <path d="M3405.68,475.277L3589.32,343.019" style="fill:none;stroke:rgb(128,130,133);stroke-width:2.08px;stroke-dasharray:0,20.83,0,0;"/>
                        </g>
                        <g transform="matrix(1,0,0,1.00393,-2973.87,-3.85757)">
                            <path d="M3589.32,343.019L3205.56,317.593" style="fill:none;stroke:rgb(128,130,133);stroke-width:2.08px;stroke-dasharray:0,20.83,0,0;"/>
                        </g>
                        <g transform="matrix(1,0,0,1.00393,-2973.87,-3.85757)">
                            <path d="M3589.32,343.019L3829.08,364.187" style="fill:none;stroke:rgb(128,130,133);stroke-width:2.08px;stroke-dasharray:0,20.83,0,0;"/>
                        </g>
                        <g transform="matrix(1,0,0,1.00393,-2973.87,-3.85757)">
                            <path d="M3589.32,343.019L3903.33,176.406" style="fill:none;stroke:rgb(128,130,133);stroke-width:2.08px;stroke-dasharray:0,20.83,0,0;"/>
                        </g>
                    </g>
                    <g>
                        <g transform="matrix(1,0,0,1.00393,-2973.87,-3.85757)">
                            <path d="M3829.08,364.187L3783.39,537.064" style="fill:none;stroke:rgb(128,130,133);stroke-width:2.08px;stroke-dasharray:0,20.83,0,0;"/>
                        </g>
                        <g transform="matrix(1,0,0,1.00393,-2973.87,-3.85757)">
                            <path d="M3783.39,537.064L3903.33,176.406" style="fill:none;stroke:rgb(128,130,133);stroke-width:2.08px;stroke-dasharray:0,20.83,0,0;"/>
                        </g>
                        <g transform="matrix(1,0,0,1.00393,-2973.87,-3.85757)">
                            <path d="M3783.39,537.064L3809.48,863.785" style="fill:none;stroke:rgb(128,130,133);stroke-width:2.08px;stroke-dasharray:0,20.83,0,0;"/>
                        </g>
                        <g transform="matrix(1,0,0,1.00393,-2973.87,-3.85757)">
                            <path d="M3783.39,537.064L3594.38,727.219" style="fill:none;stroke:rgb(128,130,133);stroke-width:2.08px;stroke-dasharray:0,20.83,0,0;"/>
                        </g>
                    </g>
                </g>
                <g id="Inner-Area-Triangulation1" serif:id="Inner Area Triangulation">
                    <g transform="matrix(1,0,0,1.00393,-2973.87,-3.85757)">
                        <path d="M3386.65,746.624L3494.21,620.814" style="fill:none;stroke:rgb(127,129,132);stroke-width:2.08px;stroke-dasharray:0,4.17,0,20.83;"/>
                    </g>
                    <g transform="matrix(1,0,0,1.00393,-2973.87,-3.85757)">
                        <path d="M3494.21,620.814L3594.38,727.219" style="fill:none;stroke:rgb(127,129,132);stroke-width:2.08px;stroke-dasharray:0,4.17,0,20.83;"/>
                    </g>
                    <g transform="matrix(1,0,0,1.00393,-2973.87,-3.85757)">
                        <path d="M3494.21,620.814L3829.08,364.187" style="fill:none;stroke:rgb(127,129,132);stroke-width:2.08px;stroke-dasharray:0,4.17,0,20.83;"/>
                    </g>
                    <g transform="matrix(1,0,0,1.00393,-2973.87,-3.85757)">
                        <path d="M3494.21,620.814L3405.68,475.277" style="fill:none;stroke:rgb(127,129,132);stroke-width:2.08px;stroke-dasharray:0,4.17,0,20.83;"/>
                    </g>
                </g>
                <g id="Quads-between-Keys1" serif:id="Quads between Keys">
                    <g transform="matrix(1,0,0,1.00393,-2973.87,-3.85757)">
                        <path d="M3207.54,749.442L3809.48,863.785L3903.33,176.406L3205.56,317.593L3207.54,749.442Z" style="fill:none;stroke:rgb(35,31,32);stroke-width:2.08px;stroke-dasharray:0,8.33,0,0;"/>
                    </g>
                    <g transform="matrix(1,0,0,1.00393,-2973.87,-3.85757)">
                        <path d="M3386.65,746.624L3594.38,727.219L3829.08,364.187L3405.68,475.277L3386.65,746.624Z" style="fill:none;stroke:rgb(35,31,32);stroke-width:2.08px;stroke-dasharray:0,8.33,0,0;"/>
                    </g>
                    <g transform="matrix(1,0,0,1.00393,-2973.87,-3.85757)">
                        <path d="M3829.08,364.187L3903.33,176.406" style="fill:none;stroke:rgb(35,31,32);stroke-width:2.08px;stroke-dasharray:0,8.33,0,0;"/>
                    </g>
                    <g transform="matrix(1,0,0,1.00393,-2973.87,-3.85757)">
                        <path d="M3594.38,727.219L3809.48,863.785" style="fill:none;stroke:rgb(35,31,32);stroke-width:2.08px;stroke-dasharray:0,8.33,0,0;"/>
                    </g>
                    <g transform="matrix(1,0,0,1.00393,-2973.87,-3.85757)">
                        <path d="M3386.65,746.624L3207.54,749.442" style="fill:none;stroke:rgb(35,31,32);stroke-width:2.08px;stroke-dasharray:0,8.33,0,0;"/>
                    </g>
                    <g transform="matrix(1,0,0,1.00393,-2973.87,-3.85757)">
                        <path d="M3405.68,475.277L3205.56,317.593" style="fill:none;stroke:rgb(35,31,32);stroke-width:2.08px;stroke-dasharray:0,8.33,0,0;"/>
                    </g>
                </g>
            </g>
            <g id="axis-marker1" serif:id="axis marker" transform="matrix(0.947139,0,0,0.951087,56.9493,-3.54605)">
                <g transform="matrix(0.998464,0,0,1,-0.873398,0)">
                    <path d="M60.021,58.937L60.021,1004.16L1006.36,1004.16" style="fill:none;stroke:rgb(35,31,32);stroke-width:2.08px;stroke-linecap:butt;"/>
                </g>
                <g>
                    <g transform="matrix(1.20866,0,0,1,-12.3227,59.0551)">
                        <path d="M59.055,59.055L44.397,59.055" style="fill:none;stroke:rgb(35,31,32);stroke-width:1.88px;stroke-linecap:butt;"/>
                    </g>
                    <g transform="matrix(1.20866,0,0,1,-12.3227,265.748)">
                        <path d="M59.055,59.055L44.397,59.055" style="fill:none;stroke:rgb(35,31,32);stroke-width:1.88px;stroke-linecap:butt;"/>
                    </g>
                    <g transform="matrix(1.20866,0,0,1,-12.3227,472.441)">
                        <path d="M59.055,59.055L44.397,59.055" style="fill:none;stroke:rgb(35,31,32);stroke-width:1.88px;stroke-linecap:butt;"/>
                    </g>
                    <g transform="matrix(1.20866,0,0,1,-12.3227,679.134)">
                        <path d="M59.055,59.055L44.397,59.055" style="fill:none;stroke:rgb(35,31,32);stroke-width:1.88px;stroke-linecap:butt;"/>
                    </g>
                    <g transform="matrix(1.20866,0,0,1,-12.3227,885.827)">
                        <path d="M59.055,59.055L44.397,59.055" style="fill:none;stroke:rgb(35,31,32);stroke-width:1.88px;stroke-linecap:butt;"/>
                    </g>
                </g>
                <g>
                    <g transform="matrix(1,0,0,0.805928,-206.693,194.879)">
                        <path d="M531.496,1004.16L531.496,1026.14" style="fill:none;stroke:rgb(35,31,32);stroke-width:2.29px;stroke-linecap:butt;"/>
                    </g>
                    <g transform="matrix(1,0,0,0.805928,0,194.879)">
                        <path d="M531.496,1004.16L531.496,1026.14" style="fill:none;stroke:rgb(35,31,32);stroke-width:2.29px;stroke-linecap:butt;"/>
                    </g>
                    <g transform="matrix(1,0,0,0.805928,-413.386,194.879)">
                        <path d="M531.496,1004.16L531.496,1026.14" style="fill:none;stroke:rgb(35,31,32);stroke-width:2.29px;stroke-linecap:butt;"/>
                    </g>
                    <g transform="matrix(1,0,0,0.805928,206.693,194.879)">
                        <path d="M531.496,1004.16L531.496,1026.14" style="fill:none;stroke:rgb(35,31,32);stroke-width:2.29px;stroke-linecap:butt;"/>
                    </g>
                    <g transform="matrix(1,0,0,0.805928,413.386,194.879)">
                        <path d="M531.496,1004.16L531.496,1026.14" style="fill:none;stroke:rgb(35,31,32);stroke-width:2.29px;stroke-linecap:butt;"/>
                    </g>
                </g>
                <g id="y-axis2" serif:id="y axis" transform="matrix(1,0,0,0.99609,-0.771671,3.51494)">
                    <g id="y-axis3" serif:id="y-axis" transform="matrix(1,0,0,1.02711,63.4647,-0.172611)">
                        <path d="M468.803,60.227L468.803,978.011" style="fill:none;stroke:black;stroke-width:2.06px;stroke-linecap:butt;stroke-linejoin:round;"/>
                    </g>
                    <g transform="matrix(1.20074,0,0,4.82183,-105.871,-228.394)">
                        <path d="M536.371,63.849L526.535,63.849L531.453,58.93L536.371,63.849Z"/>
                    </g>
                </g>
                <g id="x-axis2" serif:id="x axis" transform="matrix(1,0,0,0.99609,-0.771671,3.51494)">
                    <g id="x-axis3" serif:id="x-axis" transform="matrix(1.04904,0,0,1.00393,-6.43757,15.4944)">
                        <path d="M63.167,512.547L958.247,512.547" style="fill:none;stroke:rgb(35,31,32);stroke-width:2.03px;stroke-linecap:butt;stroke-linejoin:round;"/>
                    </g>
                    <g transform="matrix(7.35243e-17,1.20546,-4.80297,2.95252e-16,1287.75,-110.59)">
                        <path d="M536.371,63.849L526.535,63.849L531.453,58.93L536.371,63.849Z" style="fill:rgb(35,31,32);"/>
                    </g>
                </g>
                <g id="y-axis-labels1" serif:id="y axis labels" transform="matrix(1,0,0,0.99609,-0.771671,3.51494)">
                    <g transform="matrix(1,0,0,1.00393,4.02236,-21.6446)">
                        <path d="M20.88,120.622L21.547,115.889L29.48,115.889L29.48,112.822L18.747,112.822L17.547,122.289L18.547,125.089C21.08,121.755 27.747,122.289 27.68,128.555C27.68,131.555 25.347,133.622 22.68,133.622C21.08,133.622 19.613,132.889 18.813,131.489L16.48,133.555C17.813,135.622 20.213,136.689 22.68,136.689C26.68,136.689 30.88,133.622 30.88,128.555C30.88,121.955 26.08,119.089 20.88,120.622Z" style="fill-rule:nonzero;"/>
                    </g>
                    <g transform="matrix(1,0,0,1.00393,4.02236,393.416)">
                        <path d="M30.147,114.889L25.813,120.889C28.68,121.555 31.147,124.622 31.147,128.022C31.147,136.689 21.08,139.422 16.78,133.089L19.047,131.022C20.013,132.622 21.613,133.489 22.947,133.489C25.947,133.489 28.013,131.489 28.013,128.222C28.013,124.555 24.213,122.555 21.08,123.755L21.08,121.889L25.613,115.889L18.013,115.889L18.613,112.822L30.147,112.822L30.147,114.889Z" style="fill-rule:nonzero;"/>
                    </g>
                    <g transform="matrix(1,0,0,1.00393,3.15569,187.472)">
                        <path d="M34.347,127.889L31.413,127.889L31.413,112.822L29.08,112.822L17.613,128.622L17.613,130.955L28.28,130.955L28.28,136.155L31.413,136.155L31.413,130.955L34.347,130.955L34.347,127.889ZM28.213,127.889L21.813,127.889L28.213,118.955L28.213,127.889Z" style="fill-rule:nonzero;"/>
                    </g>
                    <g transform="matrix(1,0,0,1.00393,4.02236,602.529)">
                        <path d="M31.113,133.022L22.013,133.022L28.747,123.689C30.08,121.822 30.68,120.089 30.68,118.355C30.68,117.089 30.213,115.955 29.547,114.989C28.313,113.255 26.28,112.355 23.78,112.355C20.713,112.355 18.347,113.855 17.313,116.455L19.68,118.355C20.747,115.689 22.813,115.422 23.747,115.422C25.313,115.422 26.413,116.022 26.98,117.055C27.547,118.089 27.68,119.822 25.813,122.355L16.947,134.455L16.947,136.089L31.113,136.089L31.113,133.022Z" style="fill-rule:nonzero;"/>
                    </g>
                    <g transform="matrix(1,0,0,1.00393,7.60569,810.672)">
                        <path d="M21.947,112.789L25.113,112.789L25.113,136.155L21.947,136.155L21.947,117.022L17.947,120.455L17.947,116.289L21.947,112.789Z" style="fill-rule:nonzero;"/>
                    </g>
                </g>
                <g id="x-axis-labels1" serif:id="x axis labels" transform="matrix(1,0,0,0.99609,-0.771671,3.51494)">
                    <g transform="matrix(1,0,0,1.00393,95.4388,921.227)">
                        <path d="M21.947,112.789L25.113,112.789L25.113,136.155L21.947,136.155L21.947,117.022L17.947,120.455L17.947,116.289L21.947,112.789Z" style="fill-rule:nonzero;"/>
                    </g>
                    <g transform="matrix(1,0,0,1.00393,301.629,921.227)">
                        <path d="M31.113,133.022L22.013,133.022L28.747,123.689C30.08,121.822 30.68,120.089 30.68,118.355C30.68,117.089 30.213,115.955 29.547,114.989C28.313,113.255 26.28,112.355 23.78,112.355C20.713,112.355 18.347,113.855 17.313,116.455L19.68,118.355C20.747,115.689 22.813,115.422 23.747,115.422C25.313,115.422 26.413,116.022 26.98,117.055C27.547,118.089 27.68,119.822 25.813,122.355L16.947,134.455L16.947,136.089L31.113,136.089L31.113,133.022Z" style="fill-rule:nonzero;"/>
                    </g>
                    <g transform="matrix(1,0,0,1.00393,508.373,921.194)">
                        <path d="M30.147,114.889L25.813,120.889C28.68,121.555 31.147,124.622 31.147,128.022C31.147,136.689 21.08,139.422 16.78,133.089L19.047,131.022C20.013,132.622 21.613,133.489 22.947,133.489C25.947,133.489 28.013,131.489 28.013,128.222C28.013,124.555 24.213,122.555 21.08,123.755L21.08,121.889L25.613,115.889L18.013,115.889L18.613,112.822L30.147,112.822L30.147,114.889Z" style="fill-rule:nonzero;"/>
                    </g>
                    <g transform="matrix(1,0,0,1.00393,709.362,921.194)">
                        <path d="M34.347,127.889L31.413,127.889L31.413,112.822L29.08,112.822L17.613,128.622L17.613,130.955L28.28,130.955L28.28,136.155L31.413,136.155L31.413,130.955L34.347,130.955L34.347,127.889ZM28.213,127.889L21.813,127.889L28.213,118.955L28.213,127.889Z" style="fill-rule:nonzero;"/>
                    </g>
                    <g transform="matrix(1,0,0,1.00393,922.14,920.761)">
                        <path d="M20.88,120.622L21.547,115.889L29.48,115.889L29.48,112.822L18.747,112.822L17.547,122.289L18.547,125.089C21.08,121.755 27.747,122.289 27.68,128.555C27.68,131.555 25.347,133.622 22.68,133.622C21.08,133.622 19.613,132.889 18.813,131.489L16.48,133.555C17.813,135.622 20.213,136.689 22.68,136.689C26.68,136.689 30.88,133.622 30.88,128.555C30.88,121.955 26.08,119.089 20.88,120.622Z" style="fill-rule:nonzero;"/>
                    </g>
                </g>
                <g transform="matrix(1,0,0,1,456.812,967.559)">
                    <path d="M34.613,119.489L29.88,119.489L25.213,130.422L20.613,119.489L15.813,119.489L22.813,136.155L27.547,136.155L34.613,119.489Z" style="fill-rule:nonzero;"/>
                    <path d="M37.68,122.089L40.613,124.689C41.48,123.489 42.613,123.155 44.213,123.222C46.213,123.222 46.947,124.155 47.08,125.222L47.08,125.755C43.347,125.755 36.813,125.955 36.813,131.155C36.813,134.355 39.547,136.489 42.88,136.489C44.547,136.489 46.013,135.889 47.08,135.155L47.08,136.155L51.347,136.155L51.347,125.955C51.347,121.422 48.013,119.022 44.347,119.022C42.88,119.022 39.547,119.022 37.68,122.089ZM47.08,128.955L47.08,130.489C47.08,131.822 44.547,132.822 43.147,132.822C41.547,132.822 40.947,132.222 40.947,131.155C40.947,129.289 44.213,129.022 47.08,128.955Z" style="fill-rule:nonzero;"/>
                    <path d="M55.28,129.422L55.28,112.822L59.747,112.822L59.747,130.622C59.747,132.489 60.413,135.355 60.68,136.155L56.28,136.155C56.08,135.689 55.28,133.489 55.28,129.422Z" style="fill-rule:nonzero;"/>
                    <path d="M79.08,133.022L75.747,130.755C74.48,132.022 73.613,132.422 72.08,132.422C70.28,132.422 68.747,131.222 68.213,129.489L79.547,129.489C79.813,125.622 78.08,119.022 71.747,119.022C67.613,119.022 63.747,122.755 63.747,127.889C63.747,132.822 67.68,136.622 72.08,136.622C74.947,136.622 77.68,135.289 79.08,133.022ZM75.013,125.689L68.147,125.689C68.88,124.022 70.28,122.822 71.747,122.822C73.213,122.822 74.48,124.022 75.013,125.689Z" style="fill-rule:nonzero;"/>
                    <path d="M92.547,136.155L96.947,136.155L96.947,126.422C96.947,121.355 94.347,119.022 90.413,119.022C89.213,119.022 87.747,119.622 87.08,120.555L87.08,119.489L82.747,119.489L82.747,136.155L87.147,136.155L87.147,126.289C87.08,124.689 88.347,123.422 89.947,123.422C91.48,123.422 92.547,124.622 92.547,126.422L92.547,136.155Z" style="fill-rule:nonzero;"/>
                    <path d="M115.08,133.422L112.08,130.222C111.08,131.755 110.08,132.289 108.48,132.289C106.48,132.289 104.547,130.555 104.547,127.822C104.547,125.089 106.48,123.355 108.48,123.355C110.413,123.355 111.347,124.155 112.213,125.689L115.347,122.555C113.813,120.355 111.213,119.022 108.413,119.022C104.28,119.022 100.147,122.755 100.147,127.822C100.147,132.955 104.013,136.622 108.413,136.622C111.013,136.622 113.48,135.555 115.08,133.422Z" style="fill-rule:nonzero;"/>
                    <path d="M132.547,133.022L129.213,130.755C127.947,132.022 127.08,132.422 125.547,132.422C123.747,132.422 122.213,131.222 121.68,129.489L133.013,129.489C133.28,125.622 131.547,119.022 125.213,119.022C121.08,119.022 117.213,122.755 117.213,127.889C117.213,132.822 121.147,136.622 125.547,136.622C128.413,136.622 131.147,135.289 132.547,133.022ZM128.48,125.689L121.613,125.689C122.347,124.022 123.747,122.822 125.213,122.822C126.68,122.822 127.947,124.022 128.48,125.689Z" style="fill-rule:nonzero;"/>
                </g>
                <g transform="matrix(6.12323e-17,1,-1,6.12323e-17,100.753,461.816)">
                    <path d="M17.813,122.089L20.747,124.689C21.613,123.489 22.747,123.155 24.347,123.222C26.347,123.222 27.08,124.155 27.213,125.222L27.213,125.755C23.48,125.755 16.947,125.955 16.947,131.155C16.947,134.355 19.68,136.489 23.013,136.489C24.68,136.489 26.147,135.889 27.213,135.155L27.213,136.155L31.48,136.155L31.48,125.955C31.48,121.422 28.147,119.022 24.48,119.022C23.013,119.022 19.68,119.022 17.813,122.089ZM27.213,128.955L27.213,130.489C27.213,131.822 24.68,132.822 23.28,132.822C21.68,132.822 21.08,132.222 21.08,131.155C21.08,129.289 24.347,129.022 27.213,128.955Z" style="fill-rule:nonzero;"/>
                    <path d="M39.747,120.555L39.747,119.489L35.413,119.489L35.413,136.155L39.813,136.155L39.813,125.755C39.813,123.222 42.413,122.889 43.813,123.622L46.213,120.089C42.88,117.955 40.48,119.622 39.747,120.555Z" style="fill-rule:nonzero;"/>
                    <path d="M54.68,119.022C49.213,119.022 46.413,123.422 46.413,127.755C46.413,132.022 49.213,136.622 54.68,136.622C60.213,136.622 62.947,132.022 62.947,127.755C62.947,123.422 60.213,119.022 54.68,119.022ZM54.68,132.289C52.08,132.289 50.813,129.955 50.813,127.822C50.813,125.622 52.147,123.355 54.68,123.355C57.213,123.355 58.547,125.622 58.547,127.822C58.547,129.955 57.28,132.289 54.68,132.289Z" style="fill-rule:nonzero;"/>
                    <path d="M76.013,134.822L76.013,136.155L80.413,136.155L80.413,119.489L76.013,119.489L76.013,129.289C76.013,131.222 74.88,132.089 72.947,132.089C71.347,132.089 70.213,131.155 70.213,129.355L70.213,119.489L65.813,119.489L65.813,129.355C65.813,134.422 68.947,136.555 72.68,136.555C73.747,136.555 75.347,135.955 76.013,134.822Z" style="fill-rule:nonzero;"/>
                    <path d="M86.88,130.889L83.813,133.222C84.747,135.422 87.147,136.622 89.947,136.622C93.013,136.622 96.613,134.755 96.547,131.355C96.48,128.422 95.08,126.889 91.213,125.555C89.28,124.889 88.68,124.422 88.68,123.955C88.68,123.089 89.613,122.689 90.347,122.689C91.68,122.689 92.613,123.222 93.213,124.622L96.147,122.089C95.413,120.289 93.08,119.022 90.413,119.022C87.48,119.022 84.48,120.955 84.48,123.822C84.48,126.289 86.613,128.022 89.613,129.222C91.48,129.955 92.413,130.422 92.413,131.489C92.413,132.555 91.28,132.889 89.947,132.889C88.48,132.889 87.613,132.022 86.88,130.889Z" style="fill-rule:nonzero;"/>
                    <path d="M99.413,122.089L102.347,124.689C103.213,123.489 104.347,123.155 105.947,123.222C107.947,123.222 108.68,124.155 108.813,125.222L108.813,125.755C105.08,125.755 98.547,125.955 98.547,131.155C98.547,134.355 101.28,136.489 104.613,136.489C106.28,136.489 107.747,135.889 108.813,135.155L108.813,136.155L113.08,136.155L113.08,125.955C113.08,121.422 109.747,119.022 106.08,119.022C104.613,119.022 101.28,119.022 99.413,122.089ZM108.813,128.955L108.813,130.489C108.813,131.822 106.28,132.822 104.88,132.822C103.28,132.822 102.68,132.222 102.68,131.155C102.68,129.289 105.947,129.022 108.813,128.955Z" style="fill-rule:nonzero;"/>
                    <path d="M117.013,129.422L117.013,112.822L121.48,112.822L121.48,130.622C121.48,132.489 122.147,135.355 122.413,136.155L118.013,136.155C117.813,135.689 117.013,133.489 117.013,129.422Z" style="fill-rule:nonzero;"/>
                </g>
            </g>
            <g id="Key-Labels1" serif:id="Key Labels" transform="matrix(0.947139,0,0,0.947368,56.2184,-0.20303)">
                <g transform="matrix(1,0,0,1.00393,624.388,596.826)">
                    <path d="M22.147,112.822L26.347,112.822L26.347,136.155L21.68,136.155L21.68,119.489L17.947,122.622L17.947,116.422L22.147,112.822Z" style="fill-rule:nonzero;"/>
                </g>
                <g transform="matrix(1,0,0,1.00393,808.173,425.755)">
                    <path d="M23.48,128.155L18.747,136.155L23.88,136.155L30.147,126.089C32.013,122.689 32.147,121.755 32.147,120.289C32.147,115.422 27.88,112.355 24.28,112.355C20.747,112.355 16.48,115.222 16.48,120.289C16.48,124.622 19.613,127.955 23.48,128.155ZM24.28,124.089C22.28,124.089 21.08,122.755 21.08,120.355C21.08,118.222 22.28,116.822 24.28,116.822C26.213,116.822 27.48,118.222 27.48,120.355C27.48,122.822 26.213,124.089 24.28,124.089Z" style="fill-rule:nonzero;"/>
                </g>
                <g transform="matrix(1,0,0,1.00393,532.003,659.24)">
                    <path d="M22.147,112.822L26.347,112.822L26.347,136.155L21.68,136.155L21.68,119.489L17.947,122.622L17.947,116.422L22.147,112.822Z" style="fill-rule:nonzero;"/>
                    <path d="M47.213,131.489L39.28,131.489L44.747,124.555C46.147,122.689 46.813,120.755 46.813,118.955C46.813,117.622 46.213,116.222 45.48,115.289C44.28,113.422 41.813,112.355 39.28,112.355C35.88,112.355 33.213,113.889 32.28,116.955L35.813,119.689C36.48,117.222 38.213,116.955 39.213,116.955C41.88,116.955 42.547,119.422 40.613,122.355L32.013,133.489L32.013,136.155L47.213,136.155L47.213,131.489Z" style="fill-rule:nonzero;"/>
                </g>
                <g transform="matrix(1,0,0,1.00393,331.032,455.133)">
                    <path d="M22.147,112.822L26.347,112.822L26.347,136.155L21.68,136.155L21.68,119.489L17.947,122.622L17.947,116.422L22.147,112.822Z" style="fill-rule:nonzero;"/>
                    <path d="M37.213,112.822L41.413,112.822L41.413,136.155L36.747,136.155L36.747,119.489L33.013,122.622L33.013,116.422L37.213,112.822Z" style="fill-rule:nonzero;"/>
                </g>
                <g transform="matrix(1,0,0,1.00393,579.857,183.35)">
                    <path d="M22.147,112.822L26.347,112.822L26.347,136.155L21.68,136.155L21.68,119.489L17.947,122.622L17.947,116.422L22.147,112.822Z" style="fill-rule:nonzero;"/>
                    <path d="M40.413,112.355C34.947,112.355 31.347,116.822 31.347,124.422C31.347,134.089 35.813,136.622 40.413,136.622C45.013,136.622 49.48,134.089 49.48,124.422C49.48,116.822 45.88,112.355 40.413,112.355ZM40.413,132.089C36.413,132.022 35.947,128.355 35.947,124.489C35.947,119.889 37.347,116.889 40.413,116.889C43.48,116.889 44.88,119.889 44.88,124.489C44.88,128.355 44.413,132.022 40.413,132.089Z" style="fill-rule:nonzero;"/>
                </g>
                <g transform="matrix(1,0,0,1.00393,845.309,737.187)">
                    <path d="M22.547,119.822L22.88,117.422L30.413,117.422L30.413,112.822L19.013,112.822L17.813,122.555L19.547,126.022C20.613,123.022 27.347,122.489 27.28,128.289C27.28,130.622 25.413,132.222 23.413,132.222C21.88,132.222 21.147,131.689 20.28,130.289L16.613,133.022C17.947,135.489 20.747,136.689 23.413,136.689C27.347,136.689 31.88,133.422 31.88,128.289C31.88,122.155 27.347,119.022 22.547,119.822Z" style="fill-rule:nonzero;"/>
                </g>
                <g transform="matrix(1,0,0,1.00393,938.761,45.9351)">
                    <path d="M24.88,121.155L29.813,112.822L24.747,112.822L18.48,122.822C16.613,126.155 16.48,127.555 16.48,128.955C16.48,133.689 20.68,136.622 24.28,136.622C27.813,136.622 32.08,133.689 32.08,128.755C32.08,124.289 28.813,121.155 24.88,121.155ZM24.28,132.222C22.347,132.222 21.08,130.822 21.08,128.755C21.08,126.289 22.547,125.089 24.28,125.089C26.28,125.089 27.48,126.222 27.48,128.755C27.48,130.822 26.28,132.222 24.28,132.222Z" style="fill-rule:nonzero;"/>
                </g>
                <g transform="matrix(1,0,0,1.00393,221.019,159.457)">
                    <path d="M33.147,115.755L33.147,112.822L16.613,112.822L16.613,117.355L27.28,117.355L18.747,136.155L23.947,136.155L33.147,115.755Z" style="fill-rule:nonzero;"/>
                </g>
                <g transform="matrix(1,0,0,1.00393,864.471,236.989)">
                    <path d="M32.147,131.489L24.213,131.489L29.68,124.555C31.08,122.689 31.747,120.755 31.747,118.955C31.747,117.622 31.147,116.222 30.413,115.289C29.213,113.422 26.747,112.355 24.213,112.355C20.813,112.355 18.147,113.889 17.213,116.955L20.747,119.689C21.413,117.222 23.147,116.955 24.147,116.955C26.813,116.955 27.48,119.422 25.547,122.355L16.947,133.489L16.947,136.155L32.147,136.155L32.147,131.489Z" style="fill-rule:nonzero;"/>
                </g>
                <g transform="matrix(1,0,0,1.00393,407.669,320.387)">
                    <path d="M27.747,120.689L31.28,115.822L31.28,112.822L19.013,112.822L18.147,117.289L24.613,117.289L21.213,121.755L21.213,125.155C22.013,124.555 23.013,124.289 23.88,124.289C26.08,124.289 27.68,125.755 27.68,128.089C27.68,130.622 26.08,132.089 23.747,132.089C22.48,132.089 21.08,131.222 20.28,129.422L16.947,132.355C18.613,135.222 21.28,136.489 23.947,136.489C28.147,136.489 32.213,133.355 32.213,127.822C32.213,124.822 30.28,121.755 27.747,120.689Z" style="fill-rule:nonzero;"/>
                </g>
                <g transform="matrix(1,0,0,1.00393,413.269,602.242)">
                    <path d="M35.613,127.622L32.813,127.622L32.813,112.822L29.013,112.822L17.613,128.822L17.613,132.155L28.147,132.155L28.147,136.155L32.813,136.155L32.813,132.155L35.613,132.155L35.613,127.622ZM28.147,127.622L23.68,127.622L28.147,121.222L28.147,127.622Z" style="fill-rule:nonzero;"/>
                </g>
                <g transform="matrix(1,0,0,1.00393,182.465,620.72)">
                    <path d="M29.68,122.555C30.547,121.489 31.147,120.022 31.147,118.822C31.147,115.422 28.68,112.355 24.813,112.355C21.013,112.355 18.48,115.422 18.48,118.822C18.48,120.022 19.147,121.489 20.013,122.555C18.213,124.022 16.947,126.222 16.947,128.822C16.947,133.755 21.08,136.555 24.88,136.622C28.68,136.555 32.813,133.755 32.813,128.822C32.813,126.155 31.547,123.955 29.68,122.555ZM24.88,116.489C26.213,116.489 27.08,117.289 27.08,118.755C27.08,120.155 26.147,120.955 24.88,121.022C23.613,120.955 22.68,120.155 22.68,118.755C22.68,117.355 23.613,116.489 24.88,116.489ZM24.88,132.222C23.013,132.222 21.547,130.822 21.547,128.822C21.547,126.489 22.947,125.155 24.88,125.155C26.947,125.155 28.213,126.489 28.213,128.822C28.213,130.822 26.747,132.222 24.88,132.222Z" style="fill-rule:nonzero;"/>
                </g>
                <g transform="matrix(1,0,0,1.00393,527.333,494.413)">
                    <path d="M25.347,112.355C19.88,112.355 16.28,116.822 16.28,124.422C16.28,134.089 20.747,136.622 25.347,136.622C29.947,136.622 34.413,134.089 34.413,124.422C34.413,116.822 30.813,112.355 25.347,112.355ZM25.347,132.089C21.347,132.022 20.88,128.355 20.88,124.489C20.88,119.889 22.28,116.889 25.347,116.889C28.413,116.889 29.813,119.889 29.813,124.489C29.813,128.355 29.347,132.022 25.347,132.089Z" style="fill-rule:nonzero;"/>
                </g>
            </g>
            <g id="Keys1" serif:id="Keys" transform="matrix(0.947139,0,0,0.947368,56.2184,-0.20303)">
                <g id="cheerful1" serif:id="cheerful" transform="matrix(0.893009,0,0,0.896514,239.815,6.25599)">
                    <circle cx="689.342" cy="396.956" r="9.92" style="fill:rgb(35,31,32);"/>
                </g>
                <g id="tense1" serif:id="tense" transform="matrix(0.893009,0,0,0.896514,-183.555,116.886)">
                    <circle cx="689.342" cy="396.956" r="9.92" style="fill:rgb(35,31,32);"/>
                </g>
                <g id="calm1" serif:id="calm" transform="matrix(0.893009,0,0,0.896514,5.53218,371.956)">
                    <circle cx="689.342" cy="396.956" r="9.92" style="fill:rgb(35,31,32);"/>
                </g>
                <g id="relaxed1" serif:id="relaxed" transform="matrix(0.893009,0,0,0.896514,219.618,507.485)">
                    <circle cx="689.342" cy="396.956" r="9.92" style="fill:rgb(35,31,32);"/>
                </g>
                <g id="angry1" serif:id="angry" transform="matrix(0.893009,0,0,0.896514,-384.706,-41.2357)">
                    <circle cx="689.342" cy="396.956" r="9.92" style="fill:rgb(35,31,32);"/>
                </g>
                <g id="excited1" serif:id="excited" transform="matrix(0.893009,0,0,0.896514,314.068,-182.164)">
                    <circle cx="689.342" cy="396.956" r="9.92" style="fill:rgb(35,31,32);"/>
                </g>
                <g id="bored1" serif:id="bored" transform="matrix(0.893009,0,0,0.896514,-202.222,390.054)">
                    <circle cx="689.342" cy="396.956" r="9.92" style="fill:rgb(35,31,32);"/>
                </g>
                <g id="Sad1" serif:id="Sad" transform="matrix(0.893009,0,0,0.896514,-383.132,391.997)">
                    <circle cx="689.342" cy="396.956" r="9.92" style="fill:rgb(35,31,32);"/>
                </g>
            </g>
            <g id="Neutral-Key1" serif:id="Neutral Key" transform="matrix(0.947139,0,0,0.947368,45.1989,85.2153)">
                <g transform="matrix(1.48835,0,0,1.49419,-493.713,-63.0749)">
                    <circle cx="689.342" cy="396.956" r="9.92" style="fill:white;stroke:rgb(35,31,32);stroke-width:1.4px;"/>
                </g>
                <g transform="matrix(0.893009,0,0,0.896514,-83.3209,174.177)">
                    <circle cx="689.342" cy="396.956" r="9.92" style="stroke:rgb(35,31,32);stroke-width:2.33px;"/>
                </g>
            </g>
            <g id="Virtual-Keys1" serif:id="Virtual Keys" transform="matrix(0.947139,0,0,0.947368,56.2184,-0.20303)">
                <g transform="matrix(0.893009,0,0,0.896514,-288.441,223.383)">
                    <circle cx="689.342" cy="396.956" r="9.92" style="fill:white;stroke:rgb(35,31,32);stroke-width:2.33px;"/>
                </g>
                <g transform="matrix(0.893009,0,0,0.896514,0.0342538,-16.1253)">
                    <circle cx="689.342" cy="396.956" r="9.92" style="fill:white;stroke:rgb(35,31,32);stroke-width:2.33px;"/>
                </g>
                <g transform="matrix(0.893009,0,0,0.896514,193.757,179.734)">
                    <circle cx="689.342" cy="396.956" r="9.92" style="fill:white;stroke:rgb(35,31,32);stroke-width:2.33px;"/>
                </g>
                <g transform="matrix(0.893009,0,0,0.896514,-89.5098,421.268)">
                    <circle cx="689.342" cy="396.956" r="9.92" style="fill:white;stroke:rgb(35,31,32);stroke-width:2.33px;"/>
                </g>
            </g>
        </g>
    </g>
</svg>
