<?xml version="1.0" encoding="UTF-8" standalone="no"?>
<!DOCTYPE svg PUBLIC "-//W3C//DTD SVG 1.1//EN" "http://www.w3.org/Graphics/SVG/1.1/DTD/svg11.dtd">
<svg width="100%" height="100%" viewBox="0 0 1264 902" version="1.1" xmlns="http://www.w3.org/2000/svg" xmlns:xlink="http://www.w3.org/1999/xlink" xml:space="preserve" xmlns:serif="http://www.serif.com/" style="fill-rule:evenodd;clip-rule:evenodd;stroke-linecap:round;stroke-miterlimit:3;">
    <g transform="matrix(1,0,0,1,-2189.92,-1295.28)">
        <g id="_8-point-map" serif:id="8-point-map" transform="matrix(1.30488,0,0,0.930435,2189.92,1295.28)">
            <rect x="0" y="0" width="968.504" height="968.504" style="fill:none;"/>
            <g transform="matrix(2.94537,0,0,4.1307,-231.687,-2483.97)">
                <rect x="111.169" y="605.718" width="193.606" height="193.652" style="fill:rgb(226,227,227);"/>
            </g>
            <g transform="matrix(-3.19315,0,0,4.47819,1044.96,-2728.1)">
                <ellipse cx="207.972" cy="702.545" rx="85.488" ry="85.509" style="fill:white;stroke:rgb(24,23,21);stroke-width:0.7px;stroke-dasharray:0,3.5,0,0;"/>
            </g>
            <g transform="matrix(-3.19315,0,0,4.47819,1044.96,-2728.1)">
                <ellipse cx="207.972" cy="702.544" rx="42.733" ry="42.732" style="fill:white;stroke:rgb(24,23,21);stroke-width:0.7px;stroke-dasharray:0,3.5,0,0;"/>
            </g>
            <g transform="matrix(2.94535,0,0,4.13068,-231.683,-2483.95)">
                <rect x="111.169" y="605.718" width="193.607" height="193.652" style="fill:none;stroke:rgb(24,23,21);stroke-width:0.76px;stroke-linecap:butt;stroke-miterlimit:1.5;"/>
            </g>
            <g transform="matrix(1.07477,0,0,1.07477,-10.1281,-36.2058)">
                <g transform="matrix(-2.97101,0,0,4.16667,412.99,-2864.51)">
                    <path d="M105.849,745.729L111.169,745.729" style="fill:none;stroke:rgb(24,23,21);stroke-width:0.7px;stroke-linecap:butt;stroke-miterlimit:1.5;"/>
                </g>
                <g transform="matrix(-2.97101,0,0,4.16667,412.99,-3217.21)">
                    <path d="M105.849,788.053L111.169,788.053" style="fill:none;stroke:rgb(24,23,21);stroke-width:1.2px;stroke-linecap:butt;stroke-miterlimit:1.5;"/>
                </g>
                <g transform="matrix(-2.97101,0,0,4.16667,412.99,-2504.72)">
                    <path d="M105.849,702.554L111.169,702.554" style="fill:none;stroke:rgb(24,23,21);stroke-width:1.2px;stroke-linecap:butt;stroke-miterlimit:1.5;"/>
                </g>
                <g transform="matrix(-2.97101,0,0,4.16667,412.99,-2151.93)">
                    <path d="M105.849,660.22L111.169,660.22" style="fill:none;stroke:rgb(24,23,21);stroke-width:0.7px;stroke-linecap:butt;stroke-miterlimit:1.5;"/>
                </g>
                <g transform="matrix(-2.97101,0,0,4.16667,412.99,-1799.23)">
                    <path d="M105.849,617.896L111.169,617.896" style="fill:none;stroke:rgb(24,23,21);stroke-width:1.2px;stroke-linecap:butt;stroke-miterlimit:1.5;"/>
                </g>
                <g transform="matrix(2.97101,0,0,4.16667,-231.773,-157.974)">
                    <path d="M100.481,51.445L100.481,56.853L101.153,56.853L101.153,50.821L99.833,50.821L99.481,51.445L100.481,51.445Z" style="fill:rgb(24,23,21);fill-rule:nonzero;"/>
                </g>
                <g transform="matrix(2.97101,0,0,4.16667,-231.773,-157.974)">
                    <rect x="96.569" y="224.786" width="1.64" height="0.592" style="fill:rgb(24,23,21);fill-rule:nonzero;"/>
                    <path d="M100.481,221.602L100.481,227.01L101.153,227.01L101.153,220.978L99.833,220.978L99.481,221.602L100.481,221.602Z" style="fill:rgb(24,23,21);fill-rule:nonzero;"/>
                </g>
                <g transform="matrix(2.97101,0,0,4.16667,-231.773,-157.974)">
                    <path d="M100.681,136.812C99.153,136.812 98.521,138.7 98.521,139.94C98.521,141.428 99.305,143.052 100.681,143.052C102.057,143.052 102.841,141.428 102.841,139.94C102.841,138.7 102.209,136.812 100.681,136.812ZM100.681,137.436C101.817,137.436 102.185,139.116 102.169,139.972C102.153,140.82 101.793,142.428 100.681,142.428C99.569,142.428 99.209,140.82 99.193,139.972C99.177,139.116 99.545,137.436 100.681,137.436Z" style="fill:rgb(24,23,21);fill-rule:nonzero;"/>
                </g>
                <g transform="matrix(0,-4.16667,2.97101,0,-231.773,-157.974)">
                    <path d="M-173.75,86.585C-172.958,86.585 -172.486,87.193 -172.486,87.945C-172.486,88.705 -172.918,89.369 -173.742,89.369C-174.542,89.369 -174.974,88.673 -174.974,87.937C-174.974,87.233 -174.494,86.585 -173.75,86.585ZM-171.878,86.097L-172.518,86.097L-172.518,86.633L-172.534,86.633C-172.846,86.233 -173.31,85.993 -173.822,85.993C-174.95,85.993 -175.63,86.913 -175.63,87.985C-175.63,89.025 -174.934,89.961 -173.83,89.961C-173.302,89.961 -172.862,89.753 -172.534,89.337L-172.518,89.337L-172.518,89.857L-171.878,89.857L-171.878,86.097Z" style="fill:rgb(24,23,21);fill-rule:nonzero;"/>
                    <path d="M-170.086,86.097L-170.726,86.097L-170.726,89.857L-170.086,89.857L-170.086,87.977C-170.086,87.489 -170.054,86.585 -169.35,86.585C-169.182,86.585 -169.094,86.665 -168.966,86.753L-168.662,86.169C-168.846,86.065 -169.022,85.993 -169.238,85.993C-169.654,85.993 -169.846,86.209 -170.07,86.505L-170.086,86.505L-170.086,86.097Z" style="fill:rgb(24,23,21);fill-rule:nonzero;"/>
                    <path d="M-166.374,89.961C-165.278,89.961 -164.398,89.089 -164.398,87.985C-164.398,86.881 -165.27,85.993 -166.374,85.993C-167.478,85.993 -168.35,86.881 -168.35,87.985C-168.35,89.089 -167.47,89.961 -166.374,89.961ZM-166.374,86.585C-165.582,86.585 -165.038,87.217 -165.038,87.977C-165.038,88.745 -165.582,89.369 -166.374,89.369C-167.166,89.369 -167.71,88.745 -167.71,87.977C-167.71,87.217 -167.166,86.585 -166.374,86.585Z" style="fill:rgb(24,23,21);fill-rule:nonzero;"/>
                    <path d="M-162.926,86.097L-163.566,86.097L-163.566,88.265C-163.566,89.265 -163.19,89.961 -162.078,89.961C-160.966,89.961 -160.59,89.265 -160.59,88.265L-160.59,86.097L-161.23,86.097L-161.23,88.193C-161.23,88.825 -161.302,89.369 -162.078,89.369C-162.854,89.369 -162.926,88.825 -162.926,88.193L-162.926,86.097Z" style="fill:rgb(24,23,21);fill-rule:nonzero;"/>
                    <path d="M-157.366,86.689C-157.534,86.297 -157.934,85.993 -158.366,85.993C-158.974,85.993 -159.486,86.425 -159.486,87.057C-159.486,88.241 -157.79,87.953 -157.79,88.793C-157.79,89.137 -158.054,89.369 -158.398,89.369C-158.822,89.369 -159.006,89.121 -159.166,88.769L-159.734,89.009C-159.534,89.601 -159.038,89.961 -158.406,89.961C-157.71,89.961 -157.134,89.449 -157.134,88.737C-157.134,88.105 -157.566,87.841 -158.006,87.657C-158.446,87.473 -158.878,87.345 -158.878,87.001C-158.878,86.761 -158.638,86.585 -158.414,86.585C-158.182,86.585 -157.99,86.769 -157.902,86.969L-157.366,86.689Z" style="fill:rgb(24,23,21);fill-rule:nonzero;"/>
                    <path d="M-154.67,86.585C-153.878,86.585 -153.406,87.193 -153.406,87.945C-153.406,88.705 -153.838,89.369 -154.662,89.369C-155.462,89.369 -155.894,88.673 -155.894,87.937C-155.894,87.233 -155.414,86.585 -154.67,86.585ZM-152.798,86.097L-153.438,86.097L-153.438,86.633L-153.454,86.633C-153.766,86.233 -154.23,85.993 -154.742,85.993C-155.87,85.993 -156.55,86.913 -156.55,87.985C-156.55,89.025 -155.854,89.961 -154.75,89.961C-154.222,89.961 -153.782,89.753 -153.454,89.337L-153.438,89.337L-153.438,89.857L-152.798,89.857L-152.798,86.097Z" style="fill:rgb(24,23,21);fill-rule:nonzero;"/>
                    <rect x="-151.63" y="83.257" width="0.64" height="6.6" style="fill:rgb(24,23,21);fill-rule:nonzero;"/>
                    <path d="M-146.47,83.553C-147.03,84.745 -147.198,86.369 -147.198,87.665C-147.198,88.961 -147.03,90.585 -146.47,91.777L-145.902,91.505C-146.358,90.297 -146.542,88.977 -146.542,87.665C-146.542,86.353 -146.358,85.033 -145.902,83.825L-146.47,83.553Z" style="fill:rgb(24,23,21);fill-rule:nonzero;"/>
                    <path d="M-144.366,86.689L-143.694,86.689L-143.694,86.097L-144.366,86.097L-144.366,84.745L-145.006,84.745L-145.006,86.097L-145.398,86.097L-145.398,86.689L-145.006,86.689L-145.006,89.857L-144.366,89.857L-144.366,86.689Z" style="fill:rgb(24,23,21);fill-rule:nonzero;"/>
                    <path d="M-142.51,86.097L-143.15,86.097L-143.15,89.857L-142.51,89.857L-142.51,87.977C-142.51,87.489 -142.478,86.585 -141.774,86.585C-141.606,86.585 -141.518,86.665 -141.39,86.753L-141.086,86.169C-141.27,86.065 -141.446,85.993 -141.662,85.993C-142.078,85.993 -142.27,86.209 -142.494,86.505L-142.51,86.505L-142.51,86.097Z" style="fill:rgb(24,23,21);fill-rule:nonzero;"/>
                    <path d="M-138.878,86.585C-138.086,86.585 -137.614,87.193 -137.614,87.945C-137.614,88.705 -138.046,89.369 -138.87,89.369C-139.67,89.369 -140.102,88.673 -140.102,87.937C-140.102,87.233 -139.622,86.585 -138.878,86.585ZM-137.006,86.097L-137.646,86.097L-137.646,86.633L-137.662,86.633C-137.974,86.233 -138.438,85.993 -138.95,85.993C-140.078,85.993 -140.758,86.913 -140.758,87.985C-140.758,89.025 -140.062,89.961 -138.958,89.961C-138.43,89.961 -137.99,89.753 -137.662,89.337L-137.646,89.337L-137.646,89.857L-137.006,89.857L-137.006,86.097Z" style="fill:rgb(24,23,21);fill-rule:nonzero;"/>
                    <path d="M-135.182,86.097L-135.822,86.097L-135.822,89.857L-135.182,89.857L-135.182,88.073C-135.182,87.401 -135.126,86.585 -134.246,86.585C-133.502,86.585 -133.454,87.129 -133.454,87.737L-133.454,89.857L-132.814,89.857L-132.814,87.625C-132.814,86.745 -133.054,85.993 -134.094,85.993C-134.558,85.993 -134.902,86.193 -135.166,86.553L-135.182,86.553L-135.182,86.097Z" style="fill:rgb(24,23,21);fill-rule:nonzero;"/>
                    <path d="M-129.542,86.689C-129.71,86.297 -130.11,85.993 -130.542,85.993C-131.15,85.993 -131.662,86.425 -131.662,87.057C-131.662,88.241 -129.966,87.953 -129.966,88.793C-129.966,89.137 -130.23,89.369 -130.574,89.369C-130.998,89.369 -131.182,89.121 -131.342,88.769L-131.91,89.009C-131.71,89.601 -131.214,89.961 -130.582,89.961C-129.886,89.961 -129.31,89.449 -129.31,88.737C-129.31,88.105 -129.742,87.841 -130.182,87.657C-130.622,87.473 -131.054,87.345 -131.054,87.001C-131.054,86.761 -130.814,86.585 -130.59,86.585C-130.358,86.585 -130.166,86.769 -130.078,86.969L-129.542,86.689Z" style="fill:rgb(24,23,21);fill-rule:nonzero;"/>
                    <path d="M-127.71,86.689L-126.758,86.689L-126.758,86.097L-127.71,86.097L-127.71,84.825C-127.71,84.161 -127.71,83.793 -127.19,83.793C-127.03,83.793 -126.902,83.833 -126.758,83.881L-126.758,83.233C-126.91,83.185 -127.062,83.153 -127.214,83.153C-127.598,83.153 -127.974,83.289 -128.182,83.625C-128.35,83.897 -128.35,84.289 -128.35,84.601L-128.35,86.097L-128.702,86.097L-128.702,86.689L-128.35,86.689L-128.35,89.857L-127.71,89.857L-127.71,86.689Z" style="fill:rgb(24,23,21);fill-rule:nonzero;"/>
                    <path d="M-124.574,89.961C-123.478,89.961 -122.598,89.089 -122.598,87.985C-122.598,86.881 -123.47,85.993 -124.574,85.993C-125.678,85.993 -126.55,86.881 -126.55,87.985C-126.55,89.089 -125.67,89.961 -124.574,89.961ZM-124.574,86.585C-123.782,86.585 -123.238,87.217 -123.238,87.977C-123.238,88.745 -123.782,89.369 -124.574,89.369C-125.366,89.369 -125.91,88.745 -125.91,87.977C-125.91,87.217 -125.366,86.585 -124.574,86.585Z" style="fill:rgb(24,23,21);fill-rule:nonzero;"/>
                    <path d="M-121.11,86.097L-121.75,86.097L-121.75,89.857L-121.11,89.857L-121.11,87.977C-121.11,87.489 -121.078,86.585 -120.374,86.585C-120.206,86.585 -120.118,86.665 -119.99,86.753L-119.686,86.169C-119.87,86.065 -120.046,85.993 -120.262,85.993C-120.678,85.993 -120.87,86.209 -121.094,86.505L-121.11,86.505L-121.11,86.097Z" style="fill:rgb(24,23,21);fill-rule:nonzero;"/>
                    <path d="M-118.398,86.097L-119.038,86.097L-119.038,89.857L-118.398,89.857L-118.398,87.913C-118.398,87.345 -118.318,86.585 -117.566,86.585C-116.95,86.585 -116.894,87.257 -116.894,87.721L-116.894,89.857L-116.254,89.857L-116.254,87.865C-116.254,87.297 -116.174,86.585 -115.438,86.585C-114.782,86.585 -114.75,87.185 -114.75,87.673L-114.75,89.857L-114.11,89.857L-114.11,87.569C-114.11,86.777 -114.35,85.993 -115.31,85.993C-115.766,85.993 -116.214,86.201 -116.438,86.617C-116.638,86.225 -117.038,85.993 -117.478,85.993C-117.862,85.993 -118.182,86.193 -118.382,86.505L-118.398,86.505L-118.398,86.097Z" style="fill:rgb(24,23,21);fill-rule:nonzero;"/>
                    <path d="M-109.622,88.113C-109.558,86.993 -110.198,85.993 -111.406,85.993C-112.582,85.993 -113.23,86.913 -113.23,88.025C-113.23,89.105 -112.51,89.961 -111.39,89.961C-110.622,89.961 -110.014,89.577 -109.654,88.905L-110.198,88.593C-110.446,89.041 -110.798,89.369 -111.342,89.369C-112.07,89.369 -112.566,88.809 -112.574,88.113L-109.622,88.113ZM-112.542,87.569C-112.462,87.025 -111.95,86.585 -111.398,86.585C-110.838,86.585 -110.382,87.025 -110.294,87.569L-112.542,87.569Z" style="fill:rgb(24,23,21);fill-rule:nonzero;"/>
                    <path d="M-107.182,86.585C-106.39,86.585 -105.918,87.193 -105.918,87.945C-105.918,88.705 -106.35,89.369 -107.174,89.369C-107.974,89.369 -108.406,88.673 -108.406,87.937C-108.406,87.233 -107.926,86.585 -107.182,86.585ZM-105.95,89.857L-105.31,89.857L-105.31,83.257L-105.95,83.257L-105.95,86.633L-105.966,86.633C-106.27,86.233 -106.75,85.993 -107.254,85.993C-108.382,85.993 -109.062,86.913 -109.062,87.985C-109.062,89.025 -108.366,89.961 -107.262,89.961C-106.75,89.961 -106.278,89.745 -105.966,89.337L-105.95,89.337L-105.95,89.857Z" style="fill:rgb(24,23,21);fill-rule:nonzero;"/>
                    <path d="M-104.478,83.825C-104.022,85.033 -103.838,86.353 -103.838,87.665C-103.838,88.977 -104.022,90.297 -104.478,91.505L-103.91,91.777C-103.35,90.585 -103.182,88.961 -103.182,87.665C-103.182,86.369 -103.35,84.745 -103.91,83.553L-104.478,83.825Z" style="fill:rgb(24,23,21);fill-rule:nonzero;"/>
                </g>
            </g>
            <g transform="matrix(1.07477,0,0,1.07477,-34.1155,-69.8545)">
                <g transform="matrix(0,-4.16667,-2.97101,0,2304.48,1880.82)">
                    <path d="M247.947,603.122L253.138,603.122" style="fill:none;stroke:rgb(24,23,21);stroke-width:0.7px;stroke-linecap:butt;stroke-miterlimit:1.5;"/>
                </g>
                <g transform="matrix(0,-4.16667,-2.97101,0,2430.44,2057.47)">
                    <path d="M290.345,603.122L295.536,603.122" style="fill:none;stroke:rgb(24,23,21);stroke-width:1.2px;stroke-linecap:butt;stroke-miterlimit:1.5;"/>
                </g>
                <g transform="matrix(0,-4.16667,-2.97101,0,2178.51,1704.16)">
                    <path d="M205.549,603.122L210.74,603.122" style="fill:none;stroke:rgb(24,23,21);stroke-width:1.2px;stroke-linecap:butt;stroke-miterlimit:1.5;"/>
                </g>
                <g transform="matrix(0,-4.16667,-2.97101,0,1926.58,1350.84)">
                    <path d="M120.751,603.122L125.943,603.122" style="fill:none;stroke:rgb(24,23,21);stroke-width:1.2px;stroke-linecap:butt;stroke-miterlimit:1.5;"/>
                </g>
                <g transform="matrix(0,-4.16667,-2.97101,0,2052.54,1527.5)">
                    <path d="M163.15,603.122L168.341,603.122" style="fill:none;stroke:rgb(24,23,21);stroke-width:0.7px;stroke-linecap:butt;stroke-miterlimit:1.5;"/>
                </g>
                <g transform="matrix(2.97101,0,0,4.16667,-231.773,-157.974)">
                    <path d="M207.973,245.157C206.445,245.157 205.813,247.045 205.813,248.285C205.813,249.773 206.597,251.397 207.973,251.397C209.349,251.397 210.133,249.773 210.133,248.285C210.133,247.045 209.501,245.157 207.973,245.157ZM207.973,245.781C209.109,245.781 209.477,247.461 209.461,248.317C209.445,249.165 209.085,250.773 207.973,250.773C206.861,250.773 206.501,249.165 206.485,248.317C206.469,247.461 206.837,245.781 207.973,245.781Z" style="fill:rgb(24,23,21);fill-rule:nonzero;"/>
                </g>
                <g transform="matrix(2.97101,0,0,4.16667,-231.773,-157.974)">
                    <path d="M292.549,245.885L292.549,251.293L293.221,251.293L293.221,245.261L291.901,245.261L291.549,245.885L292.549,245.885Z" style="fill:rgb(24,23,21);fill-rule:nonzero;"/>
                </g>
                <g transform="matrix(2.97101,0,0,4.16667,-231.773,-157.974)">
                    <rect x="118.763" y="249.069" width="1.64" height="0.592" style="fill:rgb(24,23,21);fill-rule:nonzero;"/>
                    <path d="M122.675,245.885L122.675,251.293L123.347,251.293L123.347,245.261L122.027,245.261L121.675,245.885L122.675,245.885Z" style="fill:rgb(24,23,21);fill-rule:nonzero;"/>
                </g>
                <g transform="matrix(2.97101,0,0,4.16667,-231.773,-157.974)">
                    <path d="M171.337,260.525L170.609,260.525L172.457,264.533L174.297,260.525L173.577,260.525L172.457,263.053L171.337,260.525Z" style="fill:rgb(24,23,21);fill-rule:nonzero;"/>
                    <path d="M176.473,261.013C177.265,261.013 177.737,261.621 177.737,262.373C177.737,263.133 177.305,263.797 176.481,263.797C175.681,263.797 175.249,263.101 175.249,262.365C175.249,261.661 175.729,261.013 176.473,261.013ZM178.345,260.525L177.705,260.525L177.705,261.061L177.689,261.061C177.377,260.661 176.913,260.421 176.401,260.421C175.273,260.421 174.593,261.341 174.593,262.413C174.593,263.453 175.289,264.389 176.393,264.389C176.921,264.389 177.361,264.181 177.689,263.765L177.705,263.765L177.705,264.285L178.345,264.285L178.345,260.525Z" style="fill:rgb(24,23,21);fill-rule:nonzero;"/>
                    <rect x="179.513" y="257.685" width="0.64" height="6.6" style="fill:rgb(24,23,21);fill-rule:nonzero;"/>
                    <path d="M184.617,262.541C184.681,261.421 184.041,260.421 182.833,260.421C181.657,260.421 181.009,261.341 181.009,262.453C181.009,263.533 181.729,264.389 182.849,264.389C183.617,264.389 184.225,264.005 184.585,263.333L184.041,263.021C183.793,263.469 183.441,263.797 182.897,263.797C182.169,263.797 181.673,263.237 181.665,262.541L184.617,262.541ZM181.697,261.997C181.777,261.453 182.289,261.013 182.841,261.013C183.401,261.013 183.857,261.453 183.945,261.997L181.697,261.997Z" style="fill:rgb(24,23,21);fill-rule:nonzero;"/>
                    <path d="M186.137,260.525L185.497,260.525L185.497,264.285L186.137,264.285L186.137,262.501C186.137,261.829 186.193,261.013 187.073,261.013C187.817,261.013 187.865,261.557 187.865,262.165L187.865,264.285L188.505,264.285L188.505,262.053C188.505,261.173 188.265,260.421 187.225,260.421C186.761,260.421 186.417,260.621 186.153,260.981L186.137,260.981L186.137,260.525Z" style="fill:rgb(24,23,21);fill-rule:nonzero;"/>
                    <path d="M192.513,260.797C192.177,260.557 191.761,260.421 191.353,260.421C190.249,260.421 189.345,261.285 189.345,262.405C189.345,263.541 190.209,264.389 191.345,264.389C191.793,264.389 192.169,264.253 192.537,264.005L192.537,263.149L192.521,263.149C192.209,263.557 191.833,263.797 191.297,263.797C190.513,263.797 190.001,263.149 190.001,262.405C190.001,261.653 190.553,261.013 191.329,261.013C191.833,261.013 192.201,261.269 192.497,261.645L192.513,261.645L192.513,260.797Z" style="fill:rgb(24,23,21);fill-rule:nonzero;"/>
                    <path d="M196.801,262.541C196.865,261.421 196.225,260.421 195.017,260.421C193.841,260.421 193.193,261.341 193.193,262.453C193.193,263.533 193.913,264.389 195.033,264.389C195.801,264.389 196.409,264.005 196.769,263.333L196.225,263.021C195.977,263.469 195.625,263.797 195.081,263.797C194.353,263.797 193.857,263.237 193.849,262.541L196.801,262.541ZM193.881,261.997C193.961,261.453 194.473,261.013 195.025,261.013C195.585,261.013 196.041,261.453 196.129,261.997L193.881,261.997Z" style="fill:rgb(24,23,21);fill-rule:nonzero;"/>
                    <path d="M201.009,257.981C200.449,259.173 200.281,260.797 200.281,262.093C200.281,263.389 200.449,265.013 201.009,266.205L201.577,265.933C201.121,264.725 200.937,263.405 200.937,262.093C200.937,260.781 201.121,259.461 201.577,258.253L201.009,257.981Z" style="fill:rgb(24,23,21);fill-rule:nonzero;"/>
                    <path d="M203.113,261.117L203.785,261.117L203.785,260.525L203.113,260.525L203.113,259.173L202.473,259.173L202.473,260.525L202.081,260.525L202.081,261.117L202.473,261.117L202.473,264.285L203.113,264.285L203.113,261.117Z" style="fill:rgb(24,23,21);fill-rule:nonzero;"/>
                    <path d="M204.969,260.525L204.329,260.525L204.329,264.285L204.969,264.285L204.969,262.405C204.969,261.917 205.001,261.013 205.705,261.013C205.873,261.013 205.961,261.093 206.089,261.181L206.393,260.597C206.209,260.493 206.033,260.421 205.817,260.421C205.401,260.421 205.209,260.637 204.985,260.933L204.969,260.933L204.969,260.525Z" style="fill:rgb(24,23,21);fill-rule:nonzero;"/>
                    <path d="M208.601,261.013C209.393,261.013 209.865,261.621 209.865,262.373C209.865,263.133 209.433,263.797 208.609,263.797C207.809,263.797 207.377,263.101 207.377,262.365C207.377,261.661 207.857,261.013 208.601,261.013ZM210.473,260.525L209.833,260.525L209.833,261.061L209.817,261.061C209.505,260.661 209.041,260.421 208.529,260.421C207.401,260.421 206.721,261.341 206.721,262.413C206.721,263.453 207.417,264.389 208.521,264.389C209.049,264.389 209.489,264.181 209.817,263.765L209.833,263.765L209.833,264.285L210.473,264.285L210.473,260.525Z" style="fill:rgb(24,23,21);fill-rule:nonzero;"/>
                    <path d="M212.297,260.525L211.657,260.525L211.657,264.285L212.297,264.285L212.297,262.501C212.297,261.829 212.353,261.013 213.233,261.013C213.977,261.013 214.025,261.557 214.025,262.165L214.025,264.285L214.665,264.285L214.665,262.053C214.665,261.173 214.425,260.421 213.385,260.421C212.921,260.421 212.577,260.621 212.313,260.981L212.297,260.981L212.297,260.525Z" style="fill:rgb(24,23,21);fill-rule:nonzero;"/>
                    <path d="M217.937,261.117C217.769,260.725 217.369,260.421 216.937,260.421C216.329,260.421 215.817,260.853 215.817,261.485C215.817,262.669 217.513,262.381 217.513,263.221C217.513,263.565 217.249,263.797 216.905,263.797C216.481,263.797 216.297,263.549 216.137,263.197L215.569,263.437C215.769,264.029 216.265,264.389 216.897,264.389C217.593,264.389 218.169,263.877 218.169,263.165C218.169,262.533 217.737,262.269 217.297,262.085C216.857,261.901 216.425,261.773 216.425,261.429C216.425,261.189 216.665,261.013 216.889,261.013C217.121,261.013 217.313,261.197 217.401,261.397L217.937,261.117Z" style="fill:rgb(24,23,21);fill-rule:nonzero;"/>
                    <path d="M219.769,261.117L220.721,261.117L220.721,260.525L219.769,260.525L219.769,259.253C219.769,258.589 219.769,258.221 220.289,258.221C220.449,258.221 220.577,258.261 220.721,258.309L220.721,257.661C220.569,257.613 220.417,257.581 220.265,257.581C219.881,257.581 219.505,257.717 219.297,258.053C219.129,258.325 219.129,258.717 219.129,259.029L219.129,260.525L218.777,260.525L218.777,261.117L219.129,261.117L219.129,264.285L219.769,264.285L219.769,261.117Z" style="fill:rgb(24,23,21);fill-rule:nonzero;"/>
                    <path d="M222.905,264.389C224.001,264.389 224.881,263.517 224.881,262.413C224.881,261.309 224.009,260.421 222.905,260.421C221.801,260.421 220.929,261.309 220.929,262.413C220.929,263.517 221.809,264.389 222.905,264.389ZM222.905,261.013C223.697,261.013 224.241,261.645 224.241,262.405C224.241,263.173 223.697,263.797 222.905,263.797C222.113,263.797 221.569,263.173 221.569,262.405C221.569,261.645 222.113,261.013 222.905,261.013Z" style="fill:rgb(24,23,21);fill-rule:nonzero;"/>
                    <path d="M226.369,260.525L225.729,260.525L225.729,264.285L226.369,264.285L226.369,262.405C226.369,261.917 226.401,261.013 227.105,261.013C227.273,261.013 227.361,261.093 227.489,261.181L227.793,260.597C227.609,260.493 227.433,260.421 227.217,260.421C226.801,260.421 226.609,260.637 226.385,260.933L226.369,260.933L226.369,260.525Z" style="fill:rgb(24,23,21);fill-rule:nonzero;"/>
                    <path d="M229.081,260.525L228.441,260.525L228.441,264.285L229.081,264.285L229.081,262.341C229.081,261.773 229.161,261.013 229.913,261.013C230.529,261.013 230.585,261.685 230.585,262.149L230.585,264.285L231.225,264.285L231.225,262.293C231.225,261.725 231.305,261.013 232.041,261.013C232.697,261.013 232.729,261.613 232.729,262.101L232.729,264.285L233.369,264.285L233.369,261.997C233.369,261.205 233.129,260.421 232.169,260.421C231.713,260.421 231.265,260.629 231.041,261.045C230.841,260.653 230.441,260.421 230.001,260.421C229.617,260.421 229.297,260.621 229.097,260.933L229.081,260.933L229.081,260.525Z" style="fill:rgb(24,23,21);fill-rule:nonzero;"/>
                    <path d="M237.857,262.541C237.921,261.421 237.281,260.421 236.073,260.421C234.897,260.421 234.249,261.341 234.249,262.453C234.249,263.533 234.969,264.389 236.089,264.389C236.857,264.389 237.465,264.005 237.825,263.333L237.281,263.021C237.033,263.469 236.681,263.797 236.137,263.797C235.409,263.797 234.913,263.237 234.905,262.541L237.857,262.541ZM234.937,261.997C235.017,261.453 235.529,261.013 236.081,261.013C236.641,261.013 237.097,261.453 237.185,261.997L234.937,261.997Z" style="fill:rgb(24,23,21);fill-rule:nonzero;"/>
                    <path d="M240.297,261.013C241.089,261.013 241.561,261.621 241.561,262.373C241.561,263.133 241.129,263.797 240.305,263.797C239.505,263.797 239.073,263.101 239.073,262.365C239.073,261.661 239.553,261.013 240.297,261.013ZM241.529,264.285L242.169,264.285L242.169,257.685L241.529,257.685L241.529,261.061L241.513,261.061C241.209,260.661 240.729,260.421 240.225,260.421C239.097,260.421 238.417,261.341 238.417,262.413C238.417,263.453 239.113,264.389 240.217,264.389C240.729,264.389 241.201,264.173 241.513,263.765L241.529,263.765L241.529,264.285Z" style="fill:rgb(24,23,21);fill-rule:nonzero;"/>
                    <path d="M243.001,258.253C243.457,259.461 243.641,260.781 243.641,262.093C243.641,263.405 243.457,264.725 243.001,265.933L243.569,266.205C244.129,265.013 244.297,263.389 244.297,262.093C244.297,260.797 244.129,259.173 243.569,257.981L243.001,258.253Z" style="fill:rgb(24,23,21);fill-rule:nonzero;"/>
                </g>
            </g>
            <g transform="matrix(2.93723,0,0,4.47819,-230.498,-2728.19)">
                <path d="M111.169,702.554L305.311,702.554" style="fill:none;stroke:rgb(24,23,21);stroke-width:0.73px;stroke-miterlimit:1.5;stroke-dasharray:0,3.64,0,0;"/>
            </g>
            <g transform="matrix(0,-4.13068,-3.19315,0,2624.74,1277.8)">
                <path d="M111.318,702.544L304.97,702.544" style="fill:none;stroke:rgb(24,23,21);stroke-width:0.73px;stroke-miterlimit:1.5;stroke-dasharray:0,3.64,0,0;"/>
            </g>
            <g transform="matrix(2.08072,-2.91808,-2.08072,-2.91808,1409.99,3074.93)">
                <path d="M71.072,702.566L344.873,702.566" style="fill:none;stroke:rgb(24,23,21);stroke-width:0.76px;stroke-dasharray:0,3.8,0,0;"/>
            </g>
            <g transform="matrix(2.07879,2.91538,2.07879,-2.91538,-1511.94,1859.86)">
                <path d="M71.072,702.567L344.872,702.567" style="fill:none;stroke:rgb(24,23,21);stroke-width:0.76px;stroke-dasharray:0,3.8,0,0;"/>
            </g>
            <g transform="matrix(-3.78721,0,0,5.31134,1168.5,-3313.64)">
                <circle cx="207.972" cy="702.567" r="3.585" style="fill:white;stroke:rgb(24,23,21);stroke-width:0.59px;"/>
            </g>
            <g transform="matrix(-4.2585,0,0,5.97228,1266.52,-3778)">
                <circle cx="207.973" cy="702.566" r="2.126" style="fill:rgb(24,23,21);"/>
            </g>
            <g transform="matrix(-4.2585,0,0,5.97228,816.194,-4409.55)">
                <circle cx="147.539" cy="763" r="2.126" style="fill:rgb(24,23,21);"/>
            </g>
            <g transform="matrix(-4.2585,0,0,5.97228,1041.49,-4093.59)">
                <circle cx="177.774" cy="732.766" r="2.126" style="fill:rgb(24,23,21);"/>
            </g>
            <g transform="matrix(-4.2585,0,0,5.97228,1491.72,-4093.59)">
                <circle cx="238.195" cy="732.766" r="2.126" style="fill:rgb(24,23,21);"/>
            </g>
            <g transform="matrix(-4.2585,0,0,5.97228,1716.84,-4409.55)">
                <circle cx="268.405" cy="763" r="2.125" style="fill:rgb(24,23,21);"/>
            </g>
            <g transform="matrix(-4.2585,0,0,5.97228,1716.84,-3145.98)">
                <circle cx="268.405" cy="642.089" r="2.125" style="fill:rgb(24,23,21);"/>
            </g>
            <g transform="matrix(-4.2585,0,0,5.97228,1491.72,-3462.18)">
                <circle cx="238.195" cy="672.346" r="2.126" style="fill:rgb(24,23,21);"/>
            </g>
            <g transform="matrix(-4.2585,0,0,5.97228,1041.49,-3461.94)">
                <circle cx="177.774" cy="672.323" r="2.126" style="fill:rgb(24,23,21);"/>
            </g>
            <g transform="matrix(-4.2585,0,0,5.97228,816.194,-3145.98)">
                <circle cx="147.539" cy="642.089" r="2.126" style="fill:rgb(24,23,21);"/>
            </g>
            <g transform="matrix(3.19315,0,0,4.47819,341.646,-2482.54)">
                <rect x="111.169" y="558.398" width="24.378" height="9.638" style="fill:rgb(227,227,227);stroke:rgb(24,23,21);stroke-width:0.7px;"/>
            </g>
            <g transform="matrix(3.19315,0,0,4.47819,341.646,-2336.8)">
                <rect x="111.169" y="542.126" width="24.378" height="9.638" style="fill:white;stroke:rgb(24,23,21);stroke-width:0.7px;"/>
            </g>
            <g transform="matrix(3.19315,0,0,4.47819,-283.218,-205.99)">
                <path d="M219.406,130.946C217.878,130.946 217.246,132.834 217.246,134.074C217.246,135.562 218.03,137.186 219.406,137.186C220.782,137.186 221.566,135.562 221.566,134.074C221.566,132.834 220.934,130.946 219.406,130.946ZM219.406,131.57C220.542,131.57 220.91,133.25 220.894,134.106C220.878,134.954 220.518,136.562 219.406,136.562C218.294,136.562 217.934,134.954 217.918,134.106C217.902,133.25 218.27,131.57 219.406,131.57Z" style="fill:rgb(24,23,21);fill-rule:nonzero;"/>
            </g>
            <g transform="matrix(3.19315,0,0,4.47819,-283.218,-205.99)">
                <path d="M156.256,76.498L152.832,81.698L153.36,82.01L157.408,75.874L152.96,75.874L152.96,76.498L156.256,76.498Z" style="fill:rgb(24,23,21);fill-rule:nonzero;"/>
            </g>
            <g transform="matrix(3.19315,0,0,4.47819,-274.788,-205.99)">
                <path d="M144.791,190.502C145.447,190.502 145.959,191.022 145.959,191.662C145.959,192.302 145.447,192.822 144.791,192.822C144.135,192.822 143.623,192.302 143.623,191.662C143.623,191.022 144.135,190.502 144.791,190.502ZM144.791,187.206C143.847,187.206 143.103,187.918 143.103,188.886C143.103,189.414 143.375,189.942 143.839,190.206C143.271,190.462 142.951,191.038 142.951,191.654C142.951,192.694 143.751,193.446 144.791,193.446C145.831,193.446 146.631,192.694 146.631,191.654C146.631,191.038 146.311,190.462 145.743,190.206C146.207,189.942 146.479,189.414 146.479,188.886C146.479,187.918 145.735,187.206 144.791,187.206ZM144.791,187.83C145.367,187.83 145.839,188.294 145.839,188.87C145.839,189.454 145.367,189.926 144.791,189.926C144.215,189.926 143.743,189.454 143.743,188.87C143.743,188.294 144.215,187.83 144.791,187.83Z" style="fill:rgb(24,23,21);fill-rule:nonzero;"/>
            </g>
            <g transform="matrix(3.19315,0,0,4.47819,-283.218,-205.99)">
                <path d="M245.906,166.896L245.906,172.304L246.578,172.304L246.578,166.272L245.258,166.272L244.906,166.896L245.906,166.896Z" style="fill:rgb(24,23,21);fill-rule:nonzero;"/>
            </g>
            <g transform="matrix(3.19315,0,0,4.47819,-283.218,-205.99)">
                <path d="M270.297,189.367L270.297,188.743L267.897,188.743L267.025,191.631C267.369,191.407 267.753,191.247 268.169,191.247C269.009,191.247 269.673,191.855 269.673,192.711C269.673,193.591 269.041,194.255 268.153,194.255C267.577,194.255 267.089,193.903 266.817,193.415L266.281,193.799C266.681,194.479 267.337,194.879 268.129,194.879C269.361,194.879 270.345,193.975 270.345,192.727C270.345,191.559 269.529,190.623 268.337,190.623L267.977,190.655L268.369,189.367L270.297,189.367Z" style="fill:rgb(24,23,21);fill-rule:nonzero;"/>
            </g>
            <g transform="matrix(3.19315,0,0,4.47819,-283.218,-205.99)">
                <path d="M256.825,75.874L254.825,78.602C254.521,79.026 254.273,79.498 254.273,80.05C254.273,81.186 255.209,82.114 256.353,82.114C257.489,82.114 258.433,81.194 258.433,80.042C258.433,78.954 257.577,78.05 256.481,78.05C256.393,78.05 256.297,78.058 256.209,78.074C256.121,78.09 256.033,78.106 255.953,78.138L255.937,78.122L257.329,76.25L256.825,75.874ZM256.353,81.49C255.569,81.49 254.945,80.85 254.945,80.066C254.945,79.282 255.569,78.674 256.353,78.674C257.129,78.674 257.761,79.282 257.761,80.066C257.761,80.85 257.137,81.49 256.353,81.49Z" style="fill:rgb(24,23,21);fill-rule:nonzero;"/>
            </g>
            <g transform="matrix(3.19315,0,0,4.47819,-283.218,-205.99)">
                <path d="M245.33,111.368L247.418,108.912C247.73,108.552 247.874,108.128 247.874,107.64C247.874,106.592 246.986,105.856 245.978,105.856C244.914,105.856 244.138,106.664 244.114,107.72L244.786,107.72C244.802,107.016 245.274,106.48 246.002,106.48C246.658,106.48 247.202,106.976 247.202,107.648C247.202,108.04 247.034,108.368 246.794,108.656L243.97,111.992L247.874,111.992L247.874,111.368L245.33,111.368Z" style="fill:rgb(24,23,21);fill-rule:nonzero;"/>
            </g>
            <g transform="matrix(3.19315,0,0,4.47819,-283.218,-205.99)">
                <path d="M185.061,109.136C185.797,109.112 186.341,109.496 186.341,110.264C186.341,110.928 185.837,111.472 185.165,111.472C184.557,111.472 184.037,111.04 184.005,110.424L183.349,110.424C183.365,111.432 184.165,112.096 185.141,112.096C186.173,112.096 187.013,111.36 187.013,110.304C187.013,109.688 186.733,109.088 186.149,108.824C186.637,108.576 186.925,108.04 186.925,107.504C186.925,106.512 186.181,105.856 185.213,105.856C184.221,105.856 183.637,106.488 183.541,107.448L184.205,107.448C184.261,106.88 184.597,106.48 185.197,106.48C185.829,106.48 186.253,106.896 186.253,107.536C186.253,108.296 185.701,108.488 185.061,108.512L185.061,109.136Z" style="fill:rgb(24,23,21);fill-rule:nonzero;"/>
            </g>
            <g transform="matrix(3.19315,0,0,4.47819,-283.218,-205.99)">
                <path d="M186.701,170.6L186.701,165.832L186.685,165.832L182.941,171.224L186.029,171.224L186.029,172.2L186.701,172.2L186.701,171.224L187.445,171.224L187.445,170.6L186.701,170.6ZM186.029,170.6L184.117,170.6L186.013,167.872L186.029,167.872L186.029,170.6Z" style="fill:rgb(24,23,21);fill-rule:nonzero;"/>
            </g>
            <g transform="matrix(3.19315,0,0,4.47819,341.646,-1208.3)">
                <path d="M145.595,277.206C145.259,276.966 144.843,276.83 144.435,276.83C143.331,276.83 142.427,277.694 142.427,278.814C142.427,279.95 143.291,280.798 144.427,280.798C144.875,280.798 145.251,280.662 145.619,280.414L145.619,279.558L145.603,279.558C145.291,279.966 144.915,280.206 144.379,280.206C143.595,280.206 143.083,279.558 143.083,278.814C143.083,278.062 143.635,277.422 144.411,277.422C144.915,277.422 145.283,277.678 145.579,278.054L145.595,278.054L145.595,277.206Z" style="fill:rgb(24,23,21);fill-rule:nonzero;"/>
                <rect x="146.595" y="274.094" width="0.64" height="6.6" style="fill:rgb(24,23,21);fill-rule:nonzero;"/>
                <path d="M149.187,276.934L148.547,276.934L148.547,280.694L149.187,280.694L149.187,276.934ZM148.867,275.062C148.619,275.062 148.411,275.27 148.411,275.518C148.411,275.774 148.619,275.974 148.867,275.974C149.115,275.974 149.323,275.774 149.323,275.518C149.323,275.27 149.115,275.062 148.867,275.062Z" style="fill:rgb(24,23,21);fill-rule:nonzero;"/>
                <path d="M152.323,277.422C153.115,277.422 153.587,278.03 153.587,278.782C153.587,279.542 153.155,280.206 152.331,280.206C151.531,280.206 151.099,279.51 151.099,278.774C151.099,278.07 151.579,277.422 152.323,277.422ZM151.131,276.934L150.491,276.934L150.491,282.806L151.131,282.806L151.131,280.166L151.147,280.166C151.451,280.574 151.923,280.798 152.435,280.798C153.563,280.798 154.243,279.894 154.243,278.822C154.243,277.782 153.547,276.83 152.443,276.83C151.923,276.83 151.459,277.054 151.147,277.47L151.131,277.47L151.131,276.934Z" style="fill:rgb(24,23,21);fill-rule:nonzero;"/>
                <path d="M156.939,277.422C157.731,277.422 158.203,278.03 158.203,278.782C158.203,279.542 157.771,280.206 156.947,280.206C156.147,280.206 155.715,279.51 155.715,278.774C155.715,278.07 156.195,277.422 156.939,277.422ZM155.747,276.934L155.107,276.934L155.107,282.806L155.747,282.806L155.747,280.166L155.763,280.166C156.067,280.574 156.539,280.798 157.051,280.798C158.179,280.798 158.859,279.894 158.859,278.822C158.859,277.782 158.163,276.83 157.059,276.83C156.539,276.83 156.075,277.054 155.763,277.47L155.747,277.47L155.747,276.934Z" style="fill:rgb(24,23,21);fill-rule:nonzero;"/>
                <path d="M160.515,276.934L159.875,276.934L159.875,280.694L160.515,280.694L160.515,276.934ZM160.195,275.062C159.947,275.062 159.739,275.27 159.739,275.518C159.739,275.774 159.947,275.974 160.195,275.974C160.443,275.974 160.651,275.774 160.651,275.518C160.651,275.27 160.443,275.062 160.195,275.062Z" style="fill:rgb(24,23,21);fill-rule:nonzero;"/>
                <path d="M162.491,276.934L161.851,276.934L161.851,280.694L162.491,280.694L162.491,278.91C162.491,278.238 162.547,277.422 163.427,277.422C164.171,277.422 164.219,277.966 164.219,278.574L164.219,280.694L164.859,280.694L164.859,278.462C164.859,277.582 164.619,276.83 163.579,276.83C163.115,276.83 162.771,277.03 162.507,277.39L162.491,277.39L162.491,276.934Z" style="fill:rgb(24,23,21);fill-rule:nonzero;"/>
                <path d="M167.595,277.422C168.387,277.422 168.859,278.03 168.859,278.782C168.859,279.542 168.427,280.206 167.603,280.206C166.803,280.206 166.371,279.51 166.371,278.774C166.371,278.07 166.851,277.422 167.595,277.422ZM169.467,276.934L168.827,276.934L168.827,277.47L168.811,277.47C168.507,277.062 168.051,276.83 167.531,276.83C166.419,276.83 165.715,277.774 165.715,278.83C165.715,279.878 166.411,280.798 167.507,280.798C168.011,280.798 168.507,280.566 168.811,280.174L168.827,280.174L168.827,280.622C168.827,281.47 168.611,282.198 167.619,282.198C166.931,282.198 166.427,281.758 166.419,281.062L165.779,281.062C165.803,282.126 166.579,282.79 167.627,282.79C168.187,282.79 168.731,282.574 169.083,282.126C169.467,281.63 169.467,281.11 169.467,280.51L169.467,276.934Z" style="fill:rgb(24,23,21);fill-rule:nonzero;"/>
                <path d="M175.235,277.526C175.067,277.134 174.667,276.83 174.235,276.83C173.627,276.83 173.115,277.262 173.115,277.894C173.115,279.078 174.811,278.79 174.811,279.63C174.811,279.974 174.547,280.206 174.203,280.206C173.779,280.206 173.595,279.958 173.435,279.606L172.867,279.846C173.067,280.438 173.563,280.798 174.195,280.798C174.891,280.798 175.467,280.286 175.467,279.574C175.467,278.942 175.035,278.678 174.595,278.494C174.155,278.31 173.723,278.182 173.723,277.838C173.723,277.598 173.963,277.422 174.187,277.422C174.419,277.422 174.611,277.606 174.699,277.806L175.235,277.526Z" style="fill:rgb(24,23,21);fill-rule:nonzero;"/>
                <path d="M178.171,277.422C178.963,277.422 179.435,278.03 179.435,278.782C179.435,279.542 179.003,280.206 178.179,280.206C177.379,280.206 176.947,279.51 176.947,278.774C176.947,278.07 177.427,277.422 178.171,277.422ZM176.979,276.934L176.339,276.934L176.339,282.806L176.979,282.806L176.979,280.166L176.995,280.166C177.299,280.574 177.771,280.798 178.283,280.798C179.411,280.798 180.091,279.894 180.091,278.822C180.091,277.782 179.395,276.83 178.291,276.83C177.771,276.83 177.307,277.054 176.995,277.47L176.979,277.47L176.979,276.934Z" style="fill:rgb(24,23,21);fill-rule:nonzero;"/>
                <path d="M182.547,277.422C183.339,277.422 183.811,278.03 183.811,278.782C183.811,279.542 183.379,280.206 182.555,280.206C181.755,280.206 181.323,279.51 181.323,278.774C181.323,278.07 181.803,277.422 182.547,277.422ZM184.419,276.934L183.779,276.934L183.779,277.47L183.763,277.47C183.451,277.07 182.987,276.83 182.475,276.83C181.347,276.83 180.667,277.75 180.667,278.822C180.667,279.862 181.363,280.798 182.467,280.798C182.995,280.798 183.435,280.59 183.763,280.174L183.779,280.174L183.779,280.694L184.419,280.694L184.419,276.934Z" style="fill:rgb(24,23,21);fill-rule:nonzero;"/>
                <path d="M188.395,277.206C188.059,276.966 187.643,276.83 187.235,276.83C186.131,276.83 185.227,277.694 185.227,278.814C185.227,279.95 186.091,280.798 187.227,280.798C187.675,280.798 188.051,280.662 188.419,280.414L188.419,279.558L188.403,279.558C188.091,279.966 187.715,280.206 187.179,280.206C186.395,280.206 185.883,279.558 185.883,278.814C185.883,278.062 186.435,277.422 187.211,277.422C187.715,277.422 188.083,277.678 188.379,278.054L188.395,278.054L188.395,277.206Z" style="fill:rgb(24,23,21);fill-rule:nonzero;"/>
                <path d="M192.683,278.95C192.747,277.83 192.107,276.83 190.899,276.83C189.723,276.83 189.075,277.75 189.075,278.862C189.075,279.942 189.795,280.798 190.915,280.798C191.683,280.798 192.291,280.414 192.651,279.742L192.107,279.43C191.859,279.878 191.507,280.206 190.963,280.206C190.235,280.206 189.739,279.646 189.731,278.95L192.683,278.95ZM189.763,278.406C189.843,277.862 190.355,277.422 190.907,277.422C191.467,277.422 191.923,277.862 192.011,278.406L189.763,278.406Z" style="fill:rgb(24,23,21);fill-rule:nonzero;"/>
            </g>
            <g transform="matrix(3.19315,0,0,4.47819,341.646,-1208.3)">
                <path d="M142.931,293.206L142.203,293.206L144.051,297.214L145.891,293.206L145.171,293.206L144.051,295.734L142.931,293.206Z" style="fill:rgb(24,23,21);fill-rule:nonzero;"/>
                <path d="M148.067,293.694C148.859,293.694 149.331,294.302 149.331,295.054C149.331,295.814 148.899,296.478 148.075,296.478C147.275,296.478 146.843,295.782 146.843,295.046C146.843,294.342 147.323,293.694 148.067,293.694ZM149.939,293.206L149.299,293.206L149.299,293.742L149.283,293.742C148.971,293.342 148.507,293.102 147.995,293.102C146.867,293.102 146.187,294.022 146.187,295.094C146.187,296.134 146.883,297.07 147.987,297.07C148.515,297.07 148.955,296.862 149.283,296.446L149.299,296.446L149.299,296.966L149.939,296.966L149.939,293.206Z" style="fill:rgb(24,23,21);fill-rule:nonzero;"/>
                <rect x="151.107" y="290.366" width="0.64" height="6.6" style="fill:rgb(24,23,21);fill-rule:nonzero;"/>
                <path d="M153.699,293.206L153.059,293.206L153.059,296.966L153.699,296.966L153.699,293.206ZM153.379,291.334C153.131,291.334 152.923,291.542 152.923,291.79C152.923,292.046 153.131,292.246 153.379,292.246C153.627,292.246 153.835,292.046 153.835,291.79C153.835,291.542 153.627,291.334 153.379,291.334Z" style="fill:rgb(24,23,21);fill-rule:nonzero;"/>
                <path d="M156.595,293.694C157.387,293.694 157.859,294.302 157.859,295.054C157.859,295.814 157.427,296.478 156.603,296.478C155.803,296.478 155.371,295.782 155.371,295.046C155.371,294.342 155.851,293.694 156.595,293.694ZM157.827,296.966L158.467,296.966L158.467,290.366L157.827,290.366L157.827,293.742L157.811,293.742C157.507,293.342 157.027,293.102 156.523,293.102C155.395,293.102 154.715,294.022 154.715,295.094C154.715,296.134 155.411,297.07 156.515,297.07C157.027,297.07 157.499,296.854 157.811,296.446L157.827,296.446L157.827,296.966Z" style="fill:rgb(24,23,21);fill-rule:nonzero;"/>
                <path d="M164.171,293.798C164.003,293.406 163.603,293.102 163.171,293.102C162.563,293.102 162.051,293.534 162.051,294.166C162.051,295.35 163.747,295.062 163.747,295.902C163.747,296.246 163.483,296.478 163.139,296.478C162.715,296.478 162.531,296.23 162.371,295.878L161.803,296.118C162.003,296.71 162.499,297.07 163.131,297.07C163.827,297.07 164.403,296.558 164.403,295.846C164.403,295.214 163.971,294.95 163.531,294.766C163.091,294.582 162.659,294.454 162.659,294.11C162.659,293.87 162.899,293.694 163.123,293.694C163.355,293.694 163.547,293.878 163.635,294.078L164.171,293.798Z" style="fill:rgb(24,23,21);fill-rule:nonzero;"/>
                <path d="M167.107,293.694C167.899,293.694 168.371,294.302 168.371,295.054C168.371,295.814 167.939,296.478 167.115,296.478C166.315,296.478 165.883,295.782 165.883,295.046C165.883,294.342 166.363,293.694 167.107,293.694ZM165.915,293.206L165.275,293.206L165.275,299.078L165.915,299.078L165.915,296.438L165.931,296.438C166.235,296.846 166.707,297.07 167.219,297.07C168.347,297.07 169.027,296.166 169.027,295.094C169.027,294.054 168.331,293.102 167.227,293.102C166.707,293.102 166.243,293.326 165.931,293.742L165.915,293.742L165.915,293.206Z" style="fill:rgb(24,23,21);fill-rule:nonzero;"/>
                <path d="M171.483,293.694C172.275,293.694 172.747,294.302 172.747,295.054C172.747,295.814 172.315,296.478 171.491,296.478C170.691,296.478 170.259,295.782 170.259,295.046C170.259,294.342 170.739,293.694 171.483,293.694ZM173.355,293.206L172.715,293.206L172.715,293.742L172.699,293.742C172.387,293.342 171.923,293.102 171.411,293.102C170.283,293.102 169.603,294.022 169.603,295.094C169.603,296.134 170.299,297.07 171.403,297.07C171.931,297.07 172.371,296.862 172.699,296.446L172.715,296.446L172.715,296.966L173.355,296.966L173.355,293.206Z" style="fill:rgb(24,23,21);fill-rule:nonzero;"/>
                <path d="M177.331,293.478C176.995,293.238 176.579,293.102 176.171,293.102C175.067,293.102 174.163,293.966 174.163,295.086C174.163,296.222 175.027,297.07 176.163,297.07C176.611,297.07 176.987,296.934 177.355,296.686L177.355,295.83L177.339,295.83C177.027,296.238 176.651,296.478 176.115,296.478C175.331,296.478 174.819,295.83 174.819,295.086C174.819,294.334 175.371,293.694 176.147,293.694C176.651,293.694 177.019,293.95 177.315,294.326L177.331,294.326L177.331,293.478Z" style="fill:rgb(24,23,21);fill-rule:nonzero;"/>
                <path d="M181.619,295.222C181.683,294.102 181.043,293.102 179.835,293.102C178.659,293.102 178.011,294.022 178.011,295.134C178.011,296.214 178.731,297.07 179.851,297.07C180.619,297.07 181.227,296.686 181.587,296.014L181.043,295.702C180.795,296.15 180.443,296.478 179.899,296.478C179.171,296.478 178.675,295.918 178.667,295.222L181.619,295.222ZM178.699,294.678C178.779,294.134 179.291,293.694 179.843,293.694C180.403,293.694 180.859,294.134 180.947,294.678L178.699,294.678Z" style="fill:rgb(24,23,21);fill-rule:nonzero;"/>
            </g>
            <g transform="matrix(-4.2585,0,0,5.97369,1601.29,-3178.42)">
                <ellipse cx="210.099" cy="563.217" rx="2.126" ry="2.125" style="fill:rgb(24,23,21);"/>
            </g>
            <g transform="matrix(3.19315,0,0,4.47819,35.7061,-1061.89)">
                <path d="M219.638,276.934L218.91,276.934L220.758,280.942L222.598,276.934L221.878,276.934L220.758,279.462L219.638,276.934Z" style="fill:rgb(24,23,21);fill-rule:nonzero;"/>
                <path d="M224.774,277.422C225.566,277.422 226.038,278.03 226.038,278.782C226.038,279.542 225.606,280.206 224.782,280.206C223.982,280.206 223.55,279.51 223.55,278.774C223.55,278.07 224.03,277.422 224.774,277.422ZM226.646,276.934L226.006,276.934L226.006,277.47L225.99,277.47C225.678,277.07 225.214,276.83 224.702,276.83C223.574,276.83 222.894,277.75 222.894,278.822C222.894,279.862 223.59,280.798 224.694,280.798C225.222,280.798 225.662,280.59 225.99,280.174L226.006,280.174L226.006,280.694L226.646,280.694L226.646,276.934Z" style="fill:rgb(24,23,21);fill-rule:nonzero;"/>
                <rect x="227.814" y="274.094" width="0.64" height="6.6" style="fill:rgb(24,23,21);fill-rule:nonzero;"/>
                <path d="M230.406,276.934L229.766,276.934L229.766,280.694L230.406,280.694L230.406,276.934ZM230.086,275.062C229.838,275.062 229.63,275.27 229.63,275.518C229.63,275.774 229.838,275.974 230.086,275.974C230.334,275.974 230.542,275.774 230.542,275.518C230.542,275.27 230.334,275.062 230.086,275.062Z" style="fill:rgb(24,23,21);fill-rule:nonzero;"/>
                <path d="M233.302,277.422C234.094,277.422 234.566,278.03 234.566,278.782C234.566,279.542 234.134,280.206 233.31,280.206C232.51,280.206 232.078,279.51 232.078,278.774C232.078,278.07 232.558,277.422 233.302,277.422ZM234.534,280.694L235.174,280.694L235.174,274.094L234.534,274.094L234.534,277.47L234.518,277.47C234.214,277.07 233.734,276.83 233.23,276.83C232.102,276.83 231.422,277.75 231.422,278.822C231.422,279.862 232.118,280.798 233.222,280.798C233.734,280.798 234.206,280.582 234.518,280.174L234.534,280.174L234.534,280.694Z" style="fill:rgb(24,23,21);fill-rule:nonzero;"/>
                <path d="M237.918,277.422C238.71,277.422 239.182,278.03 239.182,278.782C239.182,279.542 238.75,280.206 237.926,280.206C237.126,280.206 236.694,279.51 236.694,278.774C236.694,278.07 237.174,277.422 237.918,277.422ZM239.79,276.934L239.15,276.934L239.15,277.47L239.134,277.47C238.822,277.07 238.358,276.83 237.846,276.83C236.718,276.83 236.038,277.75 236.038,278.822C236.038,279.862 236.734,280.798 237.838,280.798C238.366,280.798 238.806,280.59 239.134,280.174L239.15,280.174L239.15,280.694L239.79,280.694L239.79,276.934Z" style="fill:rgb(24,23,21);fill-rule:nonzero;"/>
                <path d="M241.646,277.526L242.318,277.526L242.318,276.934L241.646,276.934L241.646,275.582L241.006,275.582L241.006,276.934L240.614,276.934L240.614,277.526L241.006,277.526L241.006,280.694L241.646,280.694L241.646,277.526Z" style="fill:rgb(24,23,21);fill-rule:nonzero;"/>
                <path d="M246.166,278.95C246.23,277.83 245.59,276.83 244.382,276.83C243.206,276.83 242.558,277.75 242.558,278.862C242.558,279.942 243.278,280.798 244.398,280.798C245.166,280.798 245.774,280.414 246.134,279.742L245.59,279.43C245.342,279.878 244.99,280.206 244.446,280.206C243.718,280.206 243.222,279.646 243.214,278.95L246.166,278.95ZM243.246,278.406C243.326,277.862 243.838,277.422 244.39,277.422C244.95,277.422 245.406,277.862 245.494,278.406L243.246,278.406Z" style="fill:rgb(24,23,21);fill-rule:nonzero;"/>
                <path d="M248.606,277.422C249.398,277.422 249.87,278.03 249.87,278.782C249.87,279.542 249.438,280.206 248.614,280.206C247.814,280.206 247.382,279.51 247.382,278.774C247.382,278.07 247.862,277.422 248.606,277.422ZM249.838,280.694L250.478,280.694L250.478,274.094L249.838,274.094L249.838,277.47L249.822,277.47C249.518,277.07 249.038,276.83 248.534,276.83C247.406,276.83 246.726,277.75 246.726,278.822C246.726,279.862 247.422,280.798 248.526,280.798C249.038,280.798 249.51,280.582 249.822,280.174L249.838,280.174L249.838,280.694Z" style="fill:rgb(24,23,21);fill-rule:nonzero;"/>
                <path d="M254.734,274.094L254.094,274.094L254.094,280.694L254.734,280.694L254.734,279.15L254.902,278.982L256.414,280.694L257.262,280.694L255.35,278.534L256.958,276.934L256.102,276.934L254.734,278.326L254.734,274.094Z" style="fill:rgb(24,23,21);fill-rule:nonzero;"/>
                <path d="M261.158,278.95C261.222,277.83 260.582,276.83 259.374,276.83C258.198,276.83 257.55,277.75 257.55,278.862C257.55,279.942 258.27,280.798 259.39,280.798C260.158,280.798 260.766,280.414 261.126,279.742L260.582,279.43C260.334,279.878 259.982,280.206 259.438,280.206C258.71,280.206 258.214,279.646 258.206,278.95L261.158,278.95ZM258.238,278.406C258.318,277.862 258.83,277.422 259.382,277.422C259.942,277.422 260.398,277.862 260.486,278.406L258.238,278.406Z" style="fill:rgb(24,23,21);fill-rule:nonzero;"/>
                <path d="M263.142,280.342L261.926,282.806L262.654,282.806L265.43,276.934L264.702,276.934L263.486,279.63L262.158,276.934L261.414,276.934L263.142,280.342Z" style="fill:rgb(24,23,21);fill-rule:nonzero;"/>
                <path d="M268.614,276.934L267.886,276.934L269.734,280.942L271.574,276.934L270.854,276.934L269.734,279.462L268.614,276.934Z" style="fill:rgb(24,23,21);fill-rule:nonzero;"/>
                <path d="M275.462,278.95C275.526,277.83 274.886,276.83 273.678,276.83C272.502,276.83 271.854,277.75 271.854,278.862C271.854,279.942 272.574,280.798 273.694,280.798C274.462,280.798 275.07,280.414 275.43,279.742L274.886,279.43C274.638,279.878 274.286,280.206 273.742,280.206C273.014,280.206 272.518,279.646 272.51,278.95L275.462,278.95ZM272.542,278.406C272.622,277.862 273.134,277.422 273.686,277.422C274.246,277.422 274.702,277.862 274.79,278.406L272.542,278.406Z" style="fill:rgb(24,23,21);fill-rule:nonzero;"/>
                <path d="M276.95,276.934L276.31,276.934L276.31,280.694L276.95,280.694L276.95,278.814C276.95,278.326 276.982,277.422 277.686,277.422C277.854,277.422 277.942,277.502 278.07,277.59L278.374,277.006C278.19,276.902 278.014,276.83 277.798,276.83C277.382,276.83 277.19,277.046 276.966,277.342L276.95,277.342L276.95,276.934Z" style="fill:rgb(24,23,21);fill-rule:nonzero;"/>
                <path d="M279.844,277.526L280.516,277.526L280.516,276.934L279.844,276.934L279.844,275.582L279.204,275.582L279.204,276.934L278.812,276.934L278.812,277.526L279.204,277.526L279.204,280.694L279.844,280.694L279.844,277.526Z" style="fill:rgb(24,23,21);fill-rule:nonzero;"/>
                <path d="M281.852,276.934L281.212,276.934L281.212,280.694L281.852,280.694L281.852,276.934ZM281.532,275.062C281.284,275.062 281.076,275.27 281.076,275.518C281.076,275.774 281.284,275.974 281.532,275.974C281.78,275.974 281.988,275.774 281.988,275.518C281.988,275.27 281.78,275.062 281.532,275.062Z" style="fill:rgb(24,23,21);fill-rule:nonzero;"/>
                <path d="M285.98,277.206C285.644,276.966 285.228,276.83 284.82,276.83C283.716,276.83 282.812,277.694 282.812,278.814C282.812,279.95 283.676,280.798 284.812,280.798C285.26,280.798 285.636,280.662 286.004,280.414L286.004,279.558L285.988,279.558C285.676,279.966 285.3,280.206 284.764,280.206C283.98,280.206 283.468,279.558 283.468,278.814C283.468,278.062 284.02,277.422 284.796,277.422C285.3,277.422 285.668,277.678 285.964,278.054L285.98,278.054L285.98,277.206Z" style="fill:rgb(24,23,21);fill-rule:nonzero;"/>
                <path d="M290.268,278.95C290.332,277.83 289.692,276.83 288.484,276.83C287.308,276.83 286.66,277.75 286.66,278.862C286.66,279.942 287.38,280.798 288.5,280.798C289.268,280.798 289.876,280.414 290.236,279.742L289.692,279.43C289.444,279.878 289.092,280.206 288.548,280.206C287.82,280.206 287.324,279.646 287.316,278.95L290.268,278.95ZM287.348,278.406C287.428,277.862 287.94,277.422 288.492,277.422C289.052,277.422 289.508,277.862 289.596,278.406L287.348,278.406Z" style="fill:rgb(24,23,21);fill-rule:nonzero;"/>
            </g>
            <g transform="matrix(3.19315,0,0,4.47819,-1.60943,-829.63)">
                <path d="M221.366,274.558C219.838,274.558 219.206,276.446 219.206,277.686C219.206,279.174 219.99,280.798 221.366,280.798C222.742,280.798 223.526,279.174 223.526,277.686C223.526,276.446 222.894,274.558 221.366,274.558ZM221.366,275.182C222.502,275.182 222.87,276.862 222.854,277.718C222.838,278.566 222.478,280.174 221.366,280.174C220.254,280.174 219.894,278.566 219.878,277.718C219.862,276.862 220.23,275.182 221.366,275.182Z" style="fill:rgb(24,23,21);fill-rule:nonzero;"/>
                <path d="M227.542,276.934L226.902,276.934L226.902,280.694L227.542,280.694L227.542,278.91C227.542,278.238 227.598,277.422 228.478,277.422C229.222,277.422 229.27,277.966 229.27,278.574L229.27,280.694L229.91,280.694L229.91,278.462C229.91,277.582 229.67,276.83 228.63,276.83C228.166,276.83 227.822,277.03 227.558,277.39L227.542,277.39L227.542,276.934Z" style="fill:rgb(24,23,21);fill-rule:nonzero;"/>
                <path d="M234.398,278.95C234.462,277.83 233.822,276.83 232.614,276.83C231.438,276.83 230.79,277.75 230.79,278.862C230.79,279.942 231.51,280.798 232.63,280.798C233.398,280.798 234.006,280.414 234.366,279.742L233.822,279.43C233.574,279.878 233.222,280.206 232.678,280.206C231.95,280.206 231.454,279.646 231.446,278.95L234.398,278.95ZM231.478,278.406C231.558,277.862 232.07,277.422 232.622,277.422C233.182,277.422 233.638,277.862 233.726,278.406L231.478,278.406Z" style="fill:rgb(24,23,21);fill-rule:nonzero;"/>
                <path d="M235.87,276.934L235.23,276.934L235.23,279.102C235.23,280.102 235.606,280.798 236.718,280.798C237.83,280.798 238.206,280.102 238.206,279.102L238.206,276.934L237.566,276.934L237.566,279.03C237.566,279.662 237.494,280.206 236.718,280.206C235.942,280.206 235.87,279.662 235.87,279.03L235.87,276.934Z" style="fill:rgb(24,23,21);fill-rule:nonzero;"/>
                <path d="M240.046,277.526L240.718,277.526L240.718,276.934L240.046,276.934L240.046,275.582L239.406,275.582L239.406,276.934L239.014,276.934L239.014,277.526L239.406,277.526L239.406,280.694L240.046,280.694L240.046,277.526Z" style="fill:rgb(24,23,21);fill-rule:nonzero;"/>
                <path d="M241.902,276.934L241.262,276.934L241.262,280.694L241.902,280.694L241.902,278.814C241.902,278.326 241.934,277.422 242.638,277.422C242.806,277.422 242.894,277.502 243.022,277.59L243.326,277.006C243.142,276.902 242.966,276.83 242.75,276.83C242.334,276.83 242.142,277.046 241.918,277.342L241.902,277.342L241.902,276.934Z" style="fill:rgb(24,23,21);fill-rule:nonzero;"/>
                <path d="M245.534,277.422C246.326,277.422 246.798,278.03 246.798,278.782C246.798,279.542 246.366,280.206 245.542,280.206C244.742,280.206 244.31,279.51 244.31,278.774C244.31,278.07 244.79,277.422 245.534,277.422ZM247.406,276.934L246.766,276.934L246.766,277.47L246.75,277.47C246.438,277.07 245.974,276.83 245.462,276.83C244.334,276.83 243.654,277.75 243.654,278.822C243.654,279.862 244.35,280.798 245.454,280.798C245.982,280.798 246.422,280.59 246.75,280.174L246.766,280.174L246.766,280.694L247.406,280.694L247.406,276.934Z" style="fill:rgb(24,23,21);fill-rule:nonzero;"/>
                <rect x="248.574" y="274.094" width="0.64" height="6.6" style="fill:rgb(24,23,21);fill-rule:nonzero;"/>
                <path d="M221.166,285.286L221.166,290.694L221.838,290.694L221.838,284.662L220.518,284.662L220.166,285.286L221.166,285.286Z" style="fill:rgb(24,23,21);fill-rule:nonzero;"/>
                <path d="M229.694,287.206C229.358,286.966 228.942,286.83 228.534,286.83C227.43,286.83 226.526,287.694 226.526,288.814C226.526,289.95 227.39,290.798 228.526,290.798C228.974,290.798 229.35,290.662 229.718,290.414L229.718,289.558L229.702,289.558C229.39,289.966 229.014,290.206 228.478,290.206C227.694,290.206 227.182,289.558 227.182,288.814C227.182,288.062 227.734,287.422 228.51,287.422C229.014,287.422 229.382,287.678 229.678,288.054L229.694,288.054L229.694,287.206Z" style="fill:rgb(24,23,21);fill-rule:nonzero;"/>
                <path d="M232.27,287.422C233.062,287.422 233.534,288.03 233.534,288.782C233.534,289.542 233.102,290.206 232.278,290.206C231.478,290.206 231.046,289.51 231.046,288.774C231.046,288.07 231.526,287.422 232.27,287.422ZM234.142,286.934L233.502,286.934L233.502,287.47L233.486,287.47C233.174,287.07 232.71,286.83 232.198,286.83C231.07,286.83 230.39,287.75 230.39,288.822C230.39,289.862 231.086,290.798 232.19,290.798C232.718,290.798 233.158,290.59 233.486,290.174L233.502,290.174L233.502,290.694L234.142,290.694L234.142,286.934Z" style="fill:rgb(24,23,21);fill-rule:nonzero;"/>
                <rect x="235.31" y="284.094" width="0.64" height="6.6" style="fill:rgb(24,23,21);fill-rule:nonzero;"/>
                <path d="M237.782,286.934L237.142,286.934L237.142,290.694L237.782,290.694L237.782,288.75C237.782,288.182 237.862,287.422 238.614,287.422C239.23,287.422 239.286,288.094 239.286,288.558L239.286,290.694L239.926,290.694L239.926,288.702C239.926,288.134 240.006,287.422 240.742,287.422C241.398,287.422 241.43,288.022 241.43,288.51L241.43,290.694L242.07,290.694L242.07,288.406C242.07,287.614 241.83,286.83 240.87,286.83C240.414,286.83 239.966,287.038 239.742,287.454C239.542,287.062 239.142,286.83 238.702,286.83C238.318,286.83 237.998,287.03 237.798,287.342L237.782,287.342L237.782,286.934Z" style="fill:rgb(24,23,21);fill-rule:nonzero;"/>
                <path d="M220.59,300.07L222.678,297.614C222.99,297.254 223.134,296.83 223.134,296.342C223.134,295.294 222.246,294.558 221.238,294.558C220.174,294.558 219.398,295.366 219.374,296.422L220.046,296.422C220.062,295.718 220.534,295.182 221.262,295.182C221.918,295.182 222.462,295.678 222.462,296.35C222.462,296.742 222.294,297.07 222.054,297.358L219.23,300.694L223.134,300.694L223.134,300.07L220.59,300.07Z" style="fill:rgb(24,23,21);fill-rule:nonzero;"/>
                <path d="M229.694,297.206C229.358,296.966 228.942,296.83 228.534,296.83C227.43,296.83 226.526,297.694 226.526,298.814C226.526,299.95 227.39,300.798 228.526,300.798C228.974,300.798 229.35,300.662 229.718,300.414L229.718,299.558L229.702,299.558C229.39,299.966 229.014,300.206 228.478,300.206C227.694,300.206 227.182,299.558 227.182,298.814C227.182,298.062 227.734,297.422 228.51,297.422C229.014,297.422 229.382,297.678 229.678,298.054L229.694,298.054L229.694,297.206Z" style="fill:rgb(24,23,21);fill-rule:nonzero;"/>
                <path d="M230.71,294.094L230.71,300.694L231.35,300.694L231.35,298.91C231.35,298.238 231.406,297.422 232.286,297.422C233.03,297.422 233.078,297.966 233.078,298.574L233.078,300.694L233.718,300.694L233.718,298.462C233.718,297.582 233.478,296.83 232.438,296.83C231.974,296.83 231.63,297.03 231.366,297.39L231.35,297.374L231.35,294.094L230.71,294.094Z" style="fill:rgb(24,23,21);fill-rule:nonzero;"/>
                <path d="M238.206,298.95C238.27,297.83 237.63,296.83 236.422,296.83C235.246,296.83 234.598,297.75 234.598,298.862C234.598,299.942 235.318,300.798 236.438,300.798C237.206,300.798 237.814,300.414 238.174,299.742L237.63,299.43C237.382,299.878 237.03,300.206 236.486,300.206C235.758,300.206 235.262,299.646 235.254,298.95L238.206,298.95ZM235.286,298.406C235.366,297.862 235.878,297.422 236.43,297.422C236.99,297.422 237.446,297.862 237.534,298.406L235.286,298.406Z" style="fill:rgb(24,23,21);fill-rule:nonzero;"/>
                <path d="M242.358,298.95C242.422,297.83 241.782,296.83 240.574,296.83C239.398,296.83 238.75,297.75 238.75,298.862C238.75,299.942 239.47,300.798 240.59,300.798C241.358,300.798 241.966,300.414 242.326,299.742L241.782,299.43C241.534,299.878 241.182,300.206 240.638,300.206C239.91,300.206 239.414,299.646 239.406,298.95L242.358,298.95ZM239.438,298.406C239.518,297.862 240.03,297.422 240.582,297.422C241.142,297.422 241.598,297.862 241.686,298.406L239.438,298.406Z" style="fill:rgb(24,23,21);fill-rule:nonzero;"/>
                <path d="M243.846,296.934L243.206,296.934L243.206,300.694L243.846,300.694L243.846,298.814C243.846,298.326 243.878,297.422 244.582,297.422C244.75,297.422 244.838,297.502 244.966,297.59L245.27,297.006C245.086,296.902 244.91,296.83 244.694,296.83C244.278,296.83 244.086,297.046 243.862,297.342L243.846,297.342L243.846,296.934Z" style="fill:rgb(24,23,21);fill-rule:nonzero;"/>
                <path d="M246.614,297.526L247.566,297.526L247.566,296.934L246.614,296.934L246.614,295.662C246.614,294.998 246.614,294.63 247.134,294.63C247.294,294.63 247.422,294.67 247.566,294.718L247.566,294.07C247.414,294.022 247.262,293.99 247.11,293.99C246.726,293.99 246.35,294.126 246.142,294.462C245.974,294.734 245.974,295.126 245.974,295.438L245.974,296.934L245.622,296.934L245.622,297.526L245.974,297.526L245.974,300.694L246.614,300.694L246.614,297.526Z" style="fill:rgb(24,23,21);fill-rule:nonzero;"/>
                <path d="M248.702,296.934L248.062,296.934L248.062,299.102C248.062,300.102 248.438,300.798 249.55,300.798C250.662,300.798 251.038,300.102 251.038,299.102L251.038,296.934L250.398,296.934L250.398,299.03C250.398,299.662 250.326,300.206 249.55,300.206C248.774,300.206 248.702,299.662 248.702,299.03L248.702,296.934Z" style="fill:rgb(24,23,21);fill-rule:nonzero;"/>
                <rect x="252.19" y="294.094" width="0.64" height="6.6" style="fill:rgb(24,23,21);fill-rule:nonzero;"/>
                <path d="M221.07,307.838C221.806,307.814 222.35,308.198 222.35,308.966C222.35,309.63 221.846,310.174 221.174,310.174C220.566,310.174 220.046,309.742 220.014,309.126L219.358,309.126C219.374,310.134 220.174,310.798 221.15,310.798C222.182,310.798 223.022,310.062 223.022,309.006C223.022,308.39 222.742,307.79 222.158,307.526C222.646,307.278 222.934,306.742 222.934,306.206C222.934,305.214 222.19,304.558 221.222,304.558C220.23,304.558 219.646,305.19 219.55,306.15L220.214,306.15C220.27,305.582 220.606,305.182 221.206,305.182C221.838,305.182 222.262,305.598 222.262,306.238C222.262,306.998 221.71,307.19 221.07,307.214L221.07,307.838Z" style="fill:rgb(24,23,21);fill-rule:nonzero;"/>
                <path d="M227.574,307.526L228.246,307.526L228.246,306.934L227.574,306.934L227.574,305.582L226.934,305.582L226.934,306.934L226.542,306.934L226.542,307.526L226.934,307.526L226.934,310.694L227.574,310.694L227.574,307.526Z" style="fill:rgb(24,23,21);fill-rule:nonzero;"/>
                <path d="M232.094,308.95C232.158,307.83 231.518,306.83 230.31,306.83C229.134,306.83 228.486,307.75 228.486,308.862C228.486,309.942 229.206,310.798 230.326,310.798C231.094,310.798 231.702,310.414 232.062,309.742L231.518,309.43C231.27,309.878 230.918,310.206 230.374,310.206C229.646,310.206 229.15,309.646 229.142,308.95L232.094,308.95ZM229.174,308.406C229.254,307.862 229.766,307.422 230.318,307.422C230.878,307.422 231.334,307.862 231.422,308.406L229.174,308.406Z" style="fill:rgb(24,23,21);fill-rule:nonzero;"/>
                <path d="M233.614,306.934L232.974,306.934L232.974,310.694L233.614,310.694L233.614,308.91C233.614,308.238 233.67,307.422 234.55,307.422C235.294,307.422 235.342,307.966 235.342,308.574L235.342,310.694L235.982,310.694L235.982,308.462C235.982,307.582 235.742,306.83 234.702,306.83C234.238,306.83 233.894,307.03 233.63,307.39L233.614,307.39L233.614,306.934Z" style="fill:rgb(24,23,21);fill-rule:nonzero;"/>
                <path d="M239.254,307.526C239.086,307.134 238.686,306.83 238.254,306.83C237.646,306.83 237.134,307.262 237.134,307.894C237.134,309.078 238.83,308.79 238.83,309.63C238.83,309.974 238.566,310.206 238.222,310.206C237.798,310.206 237.614,309.958 237.454,309.606L236.886,309.846C237.086,310.438 237.582,310.798 238.214,310.798C238.91,310.798 239.486,310.286 239.486,309.574C239.486,308.942 239.054,308.678 238.614,308.494C238.174,308.31 237.742,308.182 237.742,307.838C237.742,307.598 237.982,307.422 238.206,307.422C238.438,307.422 238.63,307.606 238.718,307.806L239.254,307.526Z" style="fill:rgb(24,23,21);fill-rule:nonzero;"/>
                <path d="M243.662,308.95C243.726,307.83 243.086,306.83 241.878,306.83C240.702,306.83 240.054,307.75 240.054,308.862C240.054,309.942 240.774,310.798 241.894,310.798C242.662,310.798 243.27,310.414 243.63,309.742L243.086,309.43C242.838,309.878 242.486,310.206 241.942,310.206C241.214,310.206 240.718,309.646 240.71,308.95L243.662,308.95ZM240.742,308.406C240.822,307.862 241.334,307.422 241.886,307.422C242.446,307.422 242.902,307.862 242.99,308.406L240.742,308.406Z" style="fill:rgb(24,23,21);fill-rule:nonzero;"/>
                <path d="M222.71,319.094L222.71,314.326L222.694,314.326L218.95,319.718L222.038,319.718L222.038,320.694L222.71,320.694L222.71,319.718L223.454,319.718L223.454,319.094L222.71,319.094ZM222.038,319.094L220.126,319.094L222.022,316.366L222.038,316.366L222.038,319.094Z" style="fill:rgb(24,23,21);fill-rule:nonzero;"/>
                <path d="M228.702,317.422C229.494,317.422 229.966,318.03 229.966,318.782C229.966,319.542 229.534,320.206 228.71,320.206C227.91,320.206 227.478,319.51 227.478,318.774C227.478,318.07 227.958,317.422 228.702,317.422ZM226.87,320.694L227.51,320.694L227.51,320.174L227.526,320.174C227.83,320.582 228.302,320.798 228.822,320.798C229.926,320.798 230.622,319.862 230.622,318.814C230.622,317.75 229.934,316.83 228.814,316.83C228.302,316.83 227.83,317.07 227.526,317.47L227.51,317.47L227.51,314.094L226.87,314.094L226.87,320.694Z" style="fill:rgb(24,23,21);fill-rule:nonzero;"/>
                <path d="M233.158,320.798C234.254,320.798 235.134,319.926 235.134,318.822C235.134,317.718 234.262,316.83 233.158,316.83C232.054,316.83 231.182,317.718 231.182,318.822C231.182,319.926 232.062,320.798 233.158,320.798ZM233.158,317.422C233.95,317.422 234.494,318.054 234.494,318.814C234.494,319.582 233.95,320.206 233.158,320.206C232.366,320.206 231.822,319.582 231.822,318.814C231.822,318.054 232.366,317.422 233.158,317.422Z" style="fill:rgb(24,23,21);fill-rule:nonzero;"/>
                <path d="M236.622,316.934L235.982,316.934L235.982,320.694L236.622,320.694L236.622,318.814C236.622,318.326 236.654,317.422 237.358,317.422C237.526,317.422 237.614,317.502 237.742,317.59L238.046,317.006C237.862,316.902 237.686,316.83 237.47,316.83C237.054,316.83 236.862,317.046 236.638,317.342L236.622,317.342L236.622,316.934Z" style="fill:rgb(24,23,21);fill-rule:nonzero;"/>
                <path d="M241.966,318.95C242.03,317.83 241.39,316.83 240.182,316.83C239.006,316.83 238.358,317.75 238.358,318.862C238.358,319.942 239.078,320.798 240.198,320.798C240.966,320.798 241.574,320.414 241.934,319.742L241.39,319.43C241.142,319.878 240.79,320.206 240.246,320.206C239.518,320.206 239.022,319.646 239.014,318.95L241.966,318.95ZM239.046,318.406C239.126,317.862 239.638,317.422 240.19,317.422C240.75,317.422 241.206,317.862 241.294,318.406L239.046,318.406Z" style="fill:rgb(24,23,21);fill-rule:nonzero;"/>
                <path d="M244.406,317.422C245.198,317.422 245.67,318.03 245.67,318.782C245.67,319.542 245.238,320.206 244.414,320.206C243.614,320.206 243.182,319.51 243.182,318.774C243.182,318.07 243.662,317.422 244.406,317.422ZM245.638,320.694L246.278,320.694L246.278,314.094L245.638,314.094L245.638,317.47L245.622,317.47C245.318,317.07 244.838,316.83 244.334,316.83C243.206,316.83 242.526,317.75 242.526,318.822C242.526,319.862 243.222,320.798 244.326,320.798C244.838,320.798 245.31,320.582 245.622,320.174L245.638,320.174L245.638,320.694Z" style="fill:rgb(24,23,21);fill-rule:nonzero;"/>
                <path d="M223.086,325.286L223.086,324.662L220.686,324.662L219.814,327.55C220.158,327.326 220.542,327.166 220.958,327.166C221.798,327.166 222.462,327.774 222.462,328.63C222.462,329.51 221.83,330.174 220.942,330.174C220.366,330.174 219.878,329.822 219.606,329.334L219.07,329.718C219.47,330.398 220.126,330.798 220.918,330.798C222.15,330.798 223.134,329.894 223.134,328.646C223.134,327.478 222.318,326.542 221.126,326.542L220.766,326.574L221.158,325.286L223.086,325.286Z" style="fill:rgb(24,23,21);fill-rule:nonzero;"/>
                <path d="M227.51,326.934L226.87,326.934L226.87,330.694L227.51,330.694L227.51,328.814C227.51,328.326 227.542,327.422 228.246,327.422C228.414,327.422 228.502,327.502 228.63,327.59L228.934,327.006C228.75,326.902 228.574,326.83 228.358,326.83C227.942,326.83 227.75,327.046 227.526,327.342L227.51,327.342L227.51,326.934Z" style="fill:rgb(24,23,21);fill-rule:nonzero;"/>
                <path d="M232.854,328.95C232.918,327.83 232.278,326.83 231.07,326.83C229.894,326.83 229.246,327.75 229.246,328.862C229.246,329.942 229.966,330.798 231.086,330.798C231.854,330.798 232.462,330.414 232.822,329.742L232.278,329.43C232.03,329.878 231.678,330.206 231.134,330.206C230.406,330.206 229.91,329.646 229.902,328.95L232.854,328.95ZM229.934,328.406C230.014,327.862 230.526,327.422 231.078,327.422C231.638,327.422 232.094,327.862 232.182,328.406L229.934,328.406Z" style="fill:rgb(24,23,21);fill-rule:nonzero;"/>
                <rect x="233.718" y="324.094" width="0.64" height="6.6" style="fill:rgb(24,23,21);fill-rule:nonzero;"/>
                <path d="M237.11,327.422C237.902,327.422 238.374,328.03 238.374,328.782C238.374,329.542 237.942,330.206 237.118,330.206C236.318,330.206 235.886,329.51 235.886,328.774C235.886,328.07 236.366,327.422 237.11,327.422ZM238.982,326.934L238.342,326.934L238.342,327.47L238.326,327.47C238.014,327.07 237.55,326.83 237.038,326.83C235.91,326.83 235.23,327.75 235.23,328.822C235.23,329.862 235.926,330.798 237.03,330.798C237.558,330.798 237.998,330.59 238.326,330.174L238.342,330.174L238.342,330.694L238.982,330.694L238.982,326.934Z" style="fill:rgb(24,23,21);fill-rule:nonzero;"/>
                <path d="M241.166,328.694L239.566,330.694L240.366,330.694L241.566,329.166L242.758,330.694L243.534,330.694L241.974,328.694L243.35,326.934L242.55,326.934L241.566,328.214L240.582,326.934L239.798,326.934L241.166,328.694Z" style="fill:rgb(24,23,21);fill-rule:nonzero;"/>
                <path d="M247.422,328.95C247.486,327.83 246.846,326.83 245.638,326.83C244.462,326.83 243.814,327.75 243.814,328.862C243.814,329.942 244.534,330.798 245.654,330.798C246.422,330.798 247.03,330.414 247.39,329.742L246.846,329.43C246.598,329.878 246.246,330.206 245.702,330.206C244.974,330.206 244.478,329.646 244.47,328.95L247.422,328.95ZM244.502,328.406C244.582,327.862 245.094,327.422 245.646,327.422C246.206,327.422 246.662,327.862 246.75,328.406L244.502,328.406Z" style="fill:rgb(24,23,21);fill-rule:nonzero;"/>
                <path d="M249.862,327.422C250.654,327.422 251.126,328.03 251.126,328.782C251.126,329.542 250.694,330.206 249.87,330.206C249.07,330.206 248.638,329.51 248.638,328.774C248.638,328.07 249.118,327.422 249.862,327.422ZM251.094,330.694L251.734,330.694L251.734,324.094L251.094,324.094L251.094,327.47L251.078,327.47C250.774,327.07 250.294,326.83 249.79,326.83C248.662,326.83 247.982,327.75 247.982,328.822C247.982,329.862 248.678,330.798 249.782,330.798C250.294,330.798 250.766,330.582 251.078,330.174L251.094,330.174L251.094,330.694Z" style="fill:rgb(24,23,21);fill-rule:nonzero;"/>
                <path d="M221.806,334.558L219.806,337.286C219.502,337.71 219.254,338.182 219.254,338.734C219.254,339.87 220.19,340.798 221.334,340.798C222.47,340.798 223.414,339.878 223.414,338.726C223.414,337.638 222.558,336.734 221.462,336.734C221.374,336.734 221.278,336.742 221.19,336.758C221.102,336.774 221.014,336.79 220.934,336.822L220.918,336.806L222.31,334.934L221.806,334.558ZM221.334,340.174C220.55,340.174 219.926,339.534 219.926,338.75C219.926,337.966 220.55,337.358 221.334,337.358C222.11,337.358 222.742,337.966 222.742,338.75C222.742,339.534 222.118,340.174 221.334,340.174Z" style="fill:rgb(24,23,21);fill-rule:nonzero;"/>
                <path d="M230.174,338.95C230.238,337.83 229.598,336.83 228.39,336.83C227.214,336.83 226.566,337.75 226.566,338.862C226.566,339.942 227.286,340.798 228.406,340.798C229.174,340.798 229.782,340.414 230.142,339.742L229.598,339.43C229.35,339.878 228.998,340.206 228.454,340.206C227.726,340.206 227.23,339.646 227.222,338.95L230.174,338.95ZM227.254,338.406C227.334,337.862 227.846,337.422 228.398,337.422C228.958,337.422 229.414,337.862 229.502,338.406L227.254,338.406Z" style="fill:rgb(24,23,21);fill-rule:nonzero;"/>
                <path d="M232.054,338.694L230.454,340.694L231.254,340.694L232.454,339.166L233.646,340.694L234.422,340.694L232.862,338.694L234.238,336.934L233.438,336.934L232.454,338.214L231.47,336.934L230.686,336.934L232.054,338.694Z" style="fill:rgb(24,23,21);fill-rule:nonzero;"/>
                <path d="M237.83,337.206C237.494,336.966 237.078,336.83 236.67,336.83C235.566,336.83 234.662,337.694 234.662,338.814C234.662,339.95 235.526,340.798 236.662,340.798C237.11,340.798 237.486,340.662 237.854,340.414L237.854,339.558L237.838,339.558C237.526,339.966 237.15,340.206 236.614,340.206C235.83,340.206 235.318,339.558 235.318,338.814C235.318,338.062 235.87,337.422 236.646,337.422C237.15,337.422 237.518,337.678 237.814,338.054L237.83,338.054L237.83,337.206Z" style="fill:rgb(24,23,21);fill-rule:nonzero;"/>
                <path d="M239.606,336.934L238.966,336.934L238.966,340.694L239.606,340.694L239.606,336.934ZM239.286,335.062C239.038,335.062 238.83,335.27 238.83,335.518C238.83,335.774 239.038,335.974 239.286,335.974C239.534,335.974 239.742,335.774 239.742,335.518C239.742,335.27 239.534,335.062 239.286,335.062Z" style="fill:rgb(24,23,21);fill-rule:nonzero;"/>
                <path d="M241.614,337.526L242.286,337.526L242.286,336.934L241.614,336.934L241.614,335.582L240.974,335.582L240.974,336.934L240.582,336.934L240.582,337.526L240.974,337.526L240.974,340.694L241.614,340.694L241.614,337.526Z" style="fill:rgb(24,23,21);fill-rule:nonzero;"/>
                <path d="M246.134,338.95C246.198,337.83 245.558,336.83 244.35,336.83C243.174,336.83 242.526,337.75 242.526,338.862C242.526,339.942 243.246,340.798 244.366,340.798C245.134,340.798 245.742,340.414 246.102,339.742L245.558,339.43C245.31,339.878 244.958,340.206 244.414,340.206C243.686,340.206 243.19,339.646 243.182,338.95L246.134,338.95ZM243.214,338.406C243.294,337.862 243.806,337.422 244.358,337.422C244.918,337.422 245.374,337.862 245.462,338.406L243.214,338.406Z" style="fill:rgb(24,23,21);fill-rule:nonzero;"/>
                <path d="M248.574,337.422C249.366,337.422 249.838,338.03 249.838,338.782C249.838,339.542 249.406,340.206 248.582,340.206C247.782,340.206 247.35,339.51 247.35,338.774C247.35,338.07 247.83,337.422 248.574,337.422ZM249.806,340.694L250.446,340.694L250.446,334.094L249.806,334.094L249.806,337.47L249.79,337.47C249.486,337.07 249.006,336.83 248.502,336.83C247.374,336.83 246.694,337.75 246.694,338.822C246.694,339.862 247.39,340.798 248.494,340.798C249.006,340.798 249.478,340.582 249.79,340.174L249.806,340.174L249.806,340.694Z" style="fill:rgb(24,23,21);fill-rule:nonzero;"/>
                <path d="M222.606,345.286L219.182,350.486L219.71,350.798L223.758,344.662L219.31,344.662L219.31,345.286L222.606,345.286Z" style="fill:rgb(24,23,21);fill-rule:nonzero;"/>
                <path d="M227.662,346.934L227.022,346.934L227.022,350.694L227.662,350.694L227.662,346.934ZM227.342,345.062C227.094,345.062 226.886,345.27 226.886,345.518C226.886,345.774 227.094,345.974 227.342,345.974C227.59,345.974 227.798,345.774 227.798,345.518C227.798,345.27 227.59,345.062 227.342,345.062Z" style="fill:rgb(24,23,21);fill-rule:nonzero;"/>
                <path d="M229.606,346.934L228.966,346.934L228.966,350.694L229.606,350.694L229.606,348.814C229.606,348.326 229.638,347.422 230.342,347.422C230.51,347.422 230.598,347.502 230.726,347.59L231.03,347.006C230.846,346.902 230.67,346.83 230.454,346.83C230.038,346.83 229.846,347.046 229.622,347.342L229.606,347.342L229.606,346.934Z" style="fill:rgb(24,23,21);fill-rule:nonzero;"/>
                <path d="M232.286,346.934L231.646,346.934L231.646,350.694L232.286,350.694L232.286,348.814C232.286,348.326 232.318,347.422 233.022,347.422C233.19,347.422 233.278,347.502 233.406,347.59L233.71,347.006C233.526,346.902 233.35,346.83 233.134,346.83C232.718,346.83 232.526,347.046 232.302,347.342L232.286,347.342L232.286,346.934Z" style="fill:rgb(24,23,21);fill-rule:nonzero;"/>
                <path d="M235.118,346.934L234.478,346.934L234.478,350.694L235.118,350.694L235.118,346.934ZM234.798,345.062C234.55,345.062 234.342,345.27 234.342,345.518C234.342,345.774 234.55,345.974 234.798,345.974C235.046,345.974 235.254,345.774 235.254,345.518C235.254,345.27 235.046,345.062 234.798,345.062Z" style="fill:rgb(24,23,21);fill-rule:nonzero;"/>
                <path d="M237.126,347.526L237.798,347.526L237.798,346.934L237.126,346.934L237.126,345.582L236.486,345.582L236.486,346.934L236.094,346.934L236.094,347.526L236.486,347.526L236.486,350.694L237.126,350.694L237.126,347.526Z" style="fill:rgb(24,23,21);fill-rule:nonzero;"/>
                <path d="M239.934,347.422C240.726,347.422 241.198,348.03 241.198,348.782C241.198,349.542 240.766,350.206 239.942,350.206C239.142,350.206 238.71,349.51 238.71,348.774C238.71,348.07 239.19,347.422 239.934,347.422ZM241.806,346.934L241.166,346.934L241.166,347.47L241.15,347.47C240.838,347.07 240.374,346.83 239.862,346.83C238.734,346.83 238.054,347.75 238.054,348.822C238.054,349.862 238.75,350.798 239.854,350.798C240.382,350.798 240.822,350.59 241.15,350.174L241.166,350.174L241.166,350.694L241.806,350.694L241.806,346.934Z" style="fill:rgb(24,23,21);fill-rule:nonzero;"/>
                <path d="M243.662,347.526L244.334,347.526L244.334,346.934L243.662,346.934L243.662,345.582L243.022,345.582L243.022,346.934L242.63,346.934L242.63,347.526L243.022,347.526L243.022,350.694L243.662,350.694L243.662,347.526Z" style="fill:rgb(24,23,21);fill-rule:nonzero;"/>
                <path d="M248.182,348.95C248.246,347.83 247.606,346.83 246.398,346.83C245.222,346.83 244.574,347.75 244.574,348.862C244.574,349.942 245.294,350.798 246.414,350.798C247.182,350.798 247.79,350.414 248.15,349.742L247.606,349.43C247.358,349.878 247.006,350.206 246.462,350.206C245.734,350.206 245.238,349.646 245.23,348.95L248.182,348.95ZM245.262,348.406C245.342,347.862 245.854,347.422 246.406,347.422C246.966,347.422 247.422,347.862 247.51,348.406L245.262,348.406Z" style="fill:rgb(24,23,21);fill-rule:nonzero;"/>
                <path d="M250.622,347.422C251.414,347.422 251.886,348.03 251.886,348.782C251.886,349.542 251.454,350.206 250.63,350.206C249.83,350.206 249.398,349.51 249.398,348.774C249.398,348.07 249.878,347.422 250.622,347.422ZM251.854,350.694L252.494,350.694L252.494,344.094L251.854,344.094L251.854,347.47L251.838,347.47C251.534,347.07 251.054,346.83 250.55,346.83C249.422,346.83 248.742,347.75 248.742,348.822C248.742,349.862 249.438,350.798 250.542,350.798C251.054,350.798 251.526,350.582 251.838,350.174L251.854,350.174L251.854,350.694Z" style="fill:rgb(24,23,21);fill-rule:nonzero;"/>
                <path d="M221.366,357.854C222.022,357.854 222.534,358.374 222.534,359.014C222.534,359.654 222.022,360.174 221.366,360.174C220.71,360.174 220.198,359.654 220.198,359.014C220.198,358.374 220.71,357.854 221.366,357.854ZM221.366,354.558C220.422,354.558 219.678,355.27 219.678,356.238C219.678,356.766 219.95,357.294 220.414,357.558C219.846,357.814 219.526,358.39 219.526,359.006C219.526,360.046 220.326,360.798 221.366,360.798C222.406,360.798 223.206,360.046 223.206,359.006C223.206,358.39 222.886,357.814 222.318,357.558C222.782,357.294 223.054,356.766 223.054,356.238C223.054,355.27 222.31,354.558 221.366,354.558ZM221.366,355.182C221.942,355.182 222.414,355.646 222.414,356.222C222.414,356.806 221.942,357.278 221.366,357.278C220.79,357.278 220.318,356.806 220.318,356.222C220.318,355.646 220.79,355.182 221.366,355.182Z" style="fill:rgb(24,23,21);fill-rule:nonzero;"/>
                <path d="M228.958,357.526C228.79,357.134 228.39,356.83 227.958,356.83C227.35,356.83 226.838,357.262 226.838,357.894C226.838,359.078 228.534,358.79 228.534,359.63C228.534,359.974 228.27,360.206 227.926,360.206C227.502,360.206 227.318,359.958 227.158,359.606L226.59,359.846C226.79,360.438 227.286,360.798 227.918,360.798C228.614,360.798 229.19,360.286 229.19,359.574C229.19,358.942 228.758,358.678 228.318,358.494C227.878,358.31 227.446,358.182 227.446,357.838C227.446,357.598 227.686,357.422 227.91,357.422C228.142,357.422 228.334,357.606 228.422,357.806L228.958,357.526Z" style="fill:rgb(24,23,21);fill-rule:nonzero;"/>
                <path d="M231.654,357.422C232.446,357.422 232.918,358.03 232.918,358.782C232.918,359.542 232.486,360.206 231.662,360.206C230.862,360.206 230.43,359.51 230.43,358.774C230.43,358.07 230.91,357.422 231.654,357.422ZM233.526,356.934L232.886,356.934L232.886,357.47L232.87,357.47C232.558,357.07 232.094,356.83 231.582,356.83C230.454,356.83 229.774,357.75 229.774,358.822C229.774,359.862 230.47,360.798 231.574,360.798C232.102,360.798 232.542,360.59 232.87,360.174L232.886,360.174L232.886,360.694L233.526,360.694L233.526,356.934Z" style="fill:rgb(24,23,21);fill-rule:nonzero;"/>
                <path d="M236.27,357.422C237.062,357.422 237.534,358.03 237.534,358.782C237.534,359.542 237.102,360.206 236.278,360.206C235.478,360.206 235.046,359.51 235.046,358.774C235.046,358.07 235.526,357.422 236.27,357.422ZM237.502,360.694L238.142,360.694L238.142,354.094L237.502,354.094L237.502,357.47L237.486,357.47C237.182,357.07 236.702,356.83 236.198,356.83C235.07,356.83 234.39,357.75 234.39,358.822C234.39,359.862 235.086,360.798 236.19,360.798C236.702,360.798 237.174,360.582 237.486,360.174L237.502,360.174L237.502,360.694Z" style="fill:rgb(24,23,21);fill-rule:nonzero;"/>
            </g>
        </g>
    </g>
</svg>
